STARTFONT 2.1
FONT -Monotype-Monotype Corsiva-Regular-R-Normal--50-360-100-100-P-260-iso8859-4
SIZE 36 100 100
FONTBOUNDINGBOX 65 54 -10 -13

STARTPROPERTIES 24
FOUNDRY "Monotype"
FAMILY_NAME "Monotype Corsiva"
WEIGHT_NAME "Regular"
SLANT "R"
SETWIDTH_NAME "Normal"
ADD_STYLE_NAME ""
PIXEL_SIZE 50
POINT_SIZE 360
RESOLUTION_X 100
RESOLUTION_Y 100
SPACING "P"
AVERAGE_WIDTH 260
CHARSET_REGISTRY "iso8859"
CHARSET_ENCODING "4"
FACE_NAME "Monotype Corsiva ISO Latin4"
_DEC_DEVICE_FONTNAMES "PS=monotypecorsiva-lat4"
COPYRIGHT "Copyright (c) 1993 Monotype Typography Ltd."
CAP_HEIGHT 36
X_HEIGHT 25
WEIGHT 10
QUAD_WIDTH 27
DEFAULT_CHAR 160
FONT_DESCENT 15
FONT_ASCENT 43
ENDPROPERTIES

CHARS 191

STARTCHAR space
ENCODING 32
SWIDTH 220 0
DWIDTH 11 0
BBX 0 0 0 0
BITMAP
ENDCHAR

STARTCHAR exclam
ENCODING 33
SWIDTH 280 0
DWIDTH 14 0
BBX 12 30 6 -1
BITMAP
01C0
03C0
03C0
03C0
0380
0380
0780
0700
0700
0700
0700
0600
0600
0600
0600
0C00
0C00
0C00
0C00
0C00
0800
0000
0000
0000
3800
3C00
7C00
7C00
7C00
3800
ENDCHAR

STARTCHAR quotedbl
ENCODING 34
SWIDTH 220 0
DWIDTH 11 0
BBX 14 13 5 16
BITMAP
0C38
0C38
1C30
1C70
1870
1860
1860
3060
30C0
30C0
20C0
2080
4080
ENDCHAR

STARTCHAR numbersign
ENCODING 35
SWIDTH 680 0
DWIDTH 34 0
BBX 30 28 7 1
BITMAP
00030380
00070300
00070700
00060700
000E0600
000E0E00
000C0E00
001C0C00
07FFFFF0
07FFFFF0
0FFFFFF0
00383800
00303800
00703800
00707000
00707000
00E07000
3FFFFF80
3FFFFF80
3FFFFF80
01C0C000
01C1C000
0181C000
03818000
03838000
03038000
07038000
07070000
ENDCHAR

STARTCHAR dollar
ENCODING 36
SWIDTH 440 0
DWIDTH 22 0
BBX 23 41 3 -7
BITMAP
0000C0
000080
000180
000180
0003F0
000FF8
003B7C
006318
006300
00C200
00C600
01C600
01C600
01C400
01EC00
01FC00
00FC00
00FC00
007E00
003F00
001F80
001F80
0017C0
0033C0
0031C0
0021C0
0021C0
006180
006180
004300
004300
30CE00
7EFC00
3FF000
1FC000
018000
018000
010000
010000
030000
030000
ENDCHAR

STARTCHAR percent
ENCODING 37
SWIDTH 680 0
DWIDTH 34 0
BBX 29 30 7 0
BITMAP
03E00000
06700600
0C380C00
1C380C00
38381800
38381000
38383000
70382000
70386000
70384000
7070C000
70718000
70E18000
30C30000
39820F80
0F0619C0
000430C0
000C70E0
0008E0E0
0018E0E0
0030E0E0
0031C0E0
0061C0E0
0041C0C0
00C1C1C0
0081C1C0
0181C380
0300C300
0300E600
06003C00
ENDCHAR

STARTCHAR ampersand
ENCODING 38
SWIDTH 780 0
DWIDTH 39 0
BBX 40 38 5 -4
BITMAP
000000000E
000000000E
000000000E
000000000C
0000003FF8
000001FFE0
0000038300
0000060600
00000C0600
00000C0E00
00001C0C00
00001C1C00
00001C1C00
00FC0C1C00
039F001800
0E0F003800
0C0F003800
180E003800
381C007800
31F8007000
3070007000
7018007000
700E00E000
700700E000
780180C000
7801C1C000
7800E18000
3C00738000
3E003F0018
3F001E0038
1F801C0038
0FF07E0018
07FFF70018
03FFC38010
00FF01C030
000000F060
0000007FC0
0000001F00
ENDCHAR

STARTCHAR quoteright
ENCODING 39
SWIDTH 240 0
DWIDTH 12 0
BBX 10 11 8 23
BITMAP
0F00
0F00
0F00
0F00
0700
0600
0600
0C00
1800
3000
2000
ENDCHAR

STARTCHAR parenleft
ENCODING 40
SWIDTH 260 0
DWIDTH 13 0
BBX 22 47 3 -13
BITMAP
000038
000060
0001C0
000380
000600
000E00
001C00
003800
007000
006000
00E000
01C000
018000
038000
030000
070000
070000
0E0000
0E0000
0C0000
1C0000
1C0000
180000
180000
380000
380000
380000
300000
300000
300000
300000
300000
300000
300000
300000
100000
180000
180000
180000
180000
080000
0C0000
040000
060000
020000
030000
010000
ENDCHAR

STARTCHAR parenright
ENCODING 41
SWIDTH 220 0
DWIDTH 11 0
BBX 22 47 -5 -13
BITMAP
000300
000100
000180
000080
0000C0
000040
000060
000060
000060
000020
000030
000030
000030
000030
000030
000030
000030
000030
000030
000030
000070
000070
000070
000060
0000E0
0000E0
0000E0
0001C0
0001C0
000180
000380
000380
000700
000600
000E00
000C00
001C00
003800
003000
006000
00C000
018000
030000
060000
1C0000
300000
400000
ENDCHAR

STARTCHAR asterisk
ENCODING 42
SWIDTH 420 0
DWIDTH 21 0
BBX 21 16 5 18
BITMAP
002000
007000
007000
007000
007000
3FFFE0
3F8FE0
0F0780
070700
010400
018C00
03FE00
03DE00
070E00
060300
040100
ENDCHAR

STARTCHAR plus
ENCODING 43
SWIDTH 520 0
DWIDTH 26 0
BBX 25 21 5 4
BITMAP
001C0000
001C0000
001C0000
001C0000
001C0000
001C0000
001C0000
001C0000
001C0000
3FFFFE00
3FFFFE00
3FFFFE00
001C0000
001C0000
001C0000
001C0000
001C0000
001C0000
001C0000
001C0000
001C0000
ENDCHAR

STARTCHAR comma
ENCODING 44
SWIDTH 220 0
DWIDTH 11 0
BBX 10 13 0 -8
BITMAP
0700
0F80
0F80
0F80
0700
0700
0700
0600
0C00
1800
3000
6000
4000
ENDCHAR

STARTCHAR minus
ENCODING 45
SWIDTH 600 0
DWIDTH 30 0
BBX 25 3 7 13
BITMAP
3FFFFE00
3FFFFE00
3FFFFE00
ENDCHAR

STARTCHAR period
ENCODING 46
SWIDTH 220 0
DWIDTH 11 0
BBX 7 6 3 -1
BITMAP
38
3C
7C
7C
7C
38
ENDCHAR

STARTCHAR slash
ENCODING 47
SWIDTH 340 0
DWIDTH 17 0
BBX 30 43 -2 -9
BITMAP
00000070
00000060
000000E0
000000C0
000001C0
00000180
00000380
00000300
00000700
00000E00
00000C00
00001C00
00001800
00003800
00003000
00007000
00006000
0000E000
0001C000
00018000
00038000
00030000
00070000
00060000
000E0000
001C0000
00180000
00380000
00300000
00700000
00600000
00E00000
00C00000
01C00000
03800000
03000000
07000000
06000000
0E000000
0C000000
1C000000
18000000
38000000
ENDCHAR

STARTCHAR zero
ENCODING 48
SWIDTH 440 0
DWIDTH 22 0
BBX 24 30 3 -1
BITMAP
001FC0
0039E0
00E0F0
01E078
01C078
03807C
07803C
07803C
0F003C
0F003C
0F003C
1E003C
1E003C
1E003C
1E007C
3E007C
3E0078
3C0078
3C0078
3C00F8
3C00F0
3C00F0
3C00E0
3C01E0
1E01C0
1E03C0
1E0380
0F0700
079E00
03F800
ENDCHAR

STARTCHAR one
ENCODING 49
SWIDTH 440 0
DWIDTH 22 0
BBX 19 30 4 -1
BITMAP
0000C0
000180
000380
000F80
003F80
00FF00
038F00
000F00
000F00
000E00
000E00
001E00
001C00
001C00
001C00
003C00
003C00
003800
003800
007800
007800
007000
007000
00F000
00F000
00E000
01E000
03E000
1FF800
7C3E00
ENDCHAR

STARTCHAR two
ENCODING 50
SWIDTH 440 0
DWIDTH 22 0
BBX 24 31 2 -1
BITMAP
0007C0
001FF0
003FF8
0060F8
00C07C
00807C
01803C
00003C
00003C
00003C
000078
000078
000070
0000E0
0001C0
000380
000300
000600
000C00
001800
003000
006000
00C000
018000
030030
060020
0C0060
1FFFC0
3FFFC0
3FFF80
000080
ENDCHAR

STARTCHAR three
ENCODING 51
SWIDTH 440 0
DWIDTH 22 0
BBX 22 30 2 -1
BITMAP
0003C0
000FF0
001FF0
0030F8
004078
008078
000070
000070
0000E0
0000C0
000180
000300
000700
001FE0
003FE0
0003F0
0001F0
0000F0
0000F0
0000F0
0000F0
0000E0
0001E0
0001C0
0003C0
000380
380700
3C1C00
3E7800
0FE000
ENDCHAR

STARTCHAR four
ENCODING 52
SWIDTH 440 0
DWIDTH 22 0
BBX 23 30 2 -1
BITMAP
000004
000018
000038
000078
0000F8
0001F0
000370
000670
000CF0
0018E0
0030E0
0061E0
00C1E0
0181C0
0301C0
0303C0
0603C0
0C0380
180380
1FFFF8
3FFFF8
3FFFF0
000700
000700
000700
000F00
000E00
000E00
000E00
001E00
ENDCHAR

STARTCHAR five
ENCODING 53
SWIDTH 440 0
DWIDTH 22 0
BBX 26 31 2 -1
BITMAP
00000100
00000300
000FFE00
001FFE00
001FFC00
00100000
00300000
00300000
00300000
00380000
007E0000
007F8000
003FC000
000FC000
0003E000
0001E000
0001E000
0000E000
0000E000
0000E000
0000E000
0000C000
0000C000
0001C000
00018000
00030000
00060000
200C0000
78380000
3FF00000
1F800000
ENDCHAR

STARTCHAR six
ENCODING 54
SWIDTH 440 0
DWIDTH 22 0
BBX 24 30 4 -1
BITMAP
00007C
0003E0
000F00
003C00
007800
00F000
01E000
03C000
038000
078000
0F0000
0F3F00
1FFF80
1F87C0
1F03C0
1E03E0
3E01E0
3E01E0
3C01E0
3C01E0
3C01E0
3C01E0
3C01E0
3C01C0
3E03C0
1E0380
1E0380
0F0700
078E00
03F800
ENDCHAR

STARTCHAR seven
ENCODING 55
SWIDTH 440 0
DWIDTH 22 0
BBX 23 30 6 -1
BITMAP
07FFF8
07FFF0
0FFFF0
0C0060
0800C0
180180
000100
000300
000600
000C00
001800
001800
003000
006000
00E000
00C000
018000
038000
070000
070000
0E0000
0E0000
1C0000
3C0000
3C0000
3C0000
780000
780000
780000
300000
ENDCHAR

STARTCHAR eight
ENCODING 56
SWIDTH 440 0
DWIDTH 22 0
BBX 23 30 3 -1
BITMAP
0003E0
000FF0
003838
00301C
00701C
00E01C
00E01C
00E018
00F038
00F070
00F8E0
007FC0
007F00
003E00
003F00
00EF80
01C7C0
0383C0
0F03E0
0E01E0
1C00E0
3C00E0
3800E0
3800E0
3800C0
3801C0
3C0380
1E0700
0F1E00
07F800
ENDCHAR

STARTCHAR nine
ENCODING 57
SWIDTH 440 0
DWIDTH 22 0
BBX 24 30 2 -1
BITMAP
001FC0
0079E0
00E0F0
01C078
01C078
03C03C
03803C
07803C
07803C
07803C
07803C
07803C
07803C
07C07C
07C07C
03C0F8
03E1F8
01FF78
007CF0
0000F0
0001E0
0001C0
0003C0
000780
000F00
001E00
003C00
00F000
0FC000
3E0000
ENDCHAR

STARTCHAR colon
ENCODING 58
SWIDTH 260 0
DWIDTH 13 0
BBX 11 22 2 -1
BITMAP
0380
03C0
07C0
07C0
07C0
0380
0000
0000
0000
0000
0000
0000
0000
0000
0000
0000
3800
3C00
7C00
7C00
7C00
3800
ENDCHAR

STARTCHAR semicolon
ENCODING 59
SWIDTH 240 0
DWIDTH 12 0
BBX 14 28 0 -7
BITMAP
0070
0078
00F8
00F8
00F8
0070
0000
0000
0000
0000
0000
0000
0000
0000
0000
0600
0F00
0F80
0F80
0780
0700
0700
0600
0C00
1C00
3800
6000
4000
ENDCHAR

STARTCHAR less
ENCODING 60
SWIDTH 520 0
DWIDTH 26 0
BBX 25 22 4 3
BITMAP
00000600
00001E00
00007E00
0001F800
0007E000
003F0000
00FC0000
03F00000
0FC00000
3F000000
7C000000
7C000000
1F000000
07E00000
01F80000
007E0000
001F8000
0007E000
0000F800
00003E00
00000E00
00000200
ENDCHAR

STARTCHAR equal
ENCODING 61
SWIDTH 520 0
DWIDTH 26 0
BBX 25 11 5 9
BITMAP
3FFFFE00
3FFFFE00
3FFFFE00
00000000
00000000
00000000
00000000
00000000
3FFFFE00
3FFFFE00
3FFFFE00
ENDCHAR

STARTCHAR greater
ENCODING 62
SWIDTH 520 0
DWIDTH 26 0
BBX 24 22 7 3
BITMAP
600000
780000
7E0000
0FC000
03F000
00FC00
003F00
000FC0
0003F0
0000FE
00001E
00003E
0000FC
0003F0
000F80
007E00
01F800
07E000
1F8000
7E0000
700000
400000
ENDCHAR

STARTCHAR question
ENCODING 63
SWIDTH 380 0
DWIDTH 19 0
BBX 19 30 3 -1
BITMAP
01F800
03FE00
03E700
038300
000180
000180
000180
000180
000380
000380
000780
000F00
007F00
01FE00
07F800
0FF000
0FC000
0E0000
0C0000
080000
180000
000000
000000
000000
380000
3C0000
7C0000
7C0000
7C0000
380000
ENDCHAR

STARTCHAR at
ENCODING 64
SWIDTH 700 0
DWIDTH 35 0
BBX 34 31 4 -1
BITMAP
00007F0000
0003FFE000
000F01F000
001C007800
0070001C00
00E0019E00
01C03F0E00
0380FF0F00
0381870700
0703070700
0E060E0700
0E0C0E0700
1E180E0700
1C180E0600
1C381C0E00
3C381C0E00
38701C1C00
38703C1800
38703C3000
3870787000
3878F8C000
387F3F8000
3C7E3E0000
3C3C380000
1E00000000
1E0000E000
0F00018000
0780070000
03E01C0000
00FFF00000
001F800000
ENDCHAR

STARTCHAR A
ENCODING 65
SWIDTH 620 0
DWIDTH 31 0
BBX 37 35 -4 -6
BITMAP
00000003C0
000001FFC0
00000F83C0
00001C07C0
0000300F80
0000600F80
0000601B80
0000E03380
0000E06780
0000E06780
000060C780
0000018700
0000018700
0000030700
0000060700
0000060F00
00000C0F00
0000180F00
0000180E00
00003FFE00
00007FFE00
0000400E00
0000C00E00
0001801E00
0003001E00
0003001E00
0006001E00
000C001E00
0018003E00
0038003FF0
0070000000
00E0000000
3FC0000000
3F80000000
3E00000000
ENDCHAR

STARTCHAR B
ENCODING 66
SWIDTH 600 0
DWIDTH 30 0
BBX 31 29 2 0
BITMAP
0001FFC0
000F83F0
00380078
00E00038
0181F03C
0303E03C
0601E03C
0C01E03C
1801E038
1801C078
3003C070
3003C1C0
2003C780
6003FFC0
6007FFF0
600781F0
600700F8
60070078
700F0078
380F0078
3C0E0078
1E0E0078
0C1E00F0
001C00F0
001C01E0
003C03C0
00380780
00F81E00
03FFF800
ENDCHAR

STARTCHAR C
ENCODING 67
SWIDTH 520 0
DWIDTH 26 0
BBX 29 34 4 -4
BITMAP
0001FF00
0007C7C0
001E01E0
003C00E0
007000C0
00E000C0
01E000C0
03C000C0
038000C0
078000C0
0F000000
0F000000
1E000000
1E000000
1E000000
3C000000
3C000000
3C000000
3C000000
7C000000
7C000000
7C000000
7C000000
7C000000
3C000000
3C000000
3E000400
3E000C00
1E000C00
1F001800
0F807000
07E1E000
01FF8000
007E0000
ENDCHAR

STARTCHAR D
ENCODING 68
SWIDTH 700 0
DWIDTH 35 0
BBX 37 30 2 0
BITMAP
00007F8000
0007FFF000
001E00FC00
0070003E00
00C0301F00
0183F00F80
0701F007C0
0601E003E0
0C01E003E0
1801E001E0
1801C001F0
3003C001F0
3003C001F0
2003C001F0
60038001F0
60078001F0
60078001E0
60078001E0
60078001E0
300F0003C0
380F0003C0
1E0F000780
1E0E000780
041E000F00
001E001E00
003C003C00
003C007800
003801F000
00FC0FC000
07FFFE0000
ENDCHAR

STARTCHAR E
ENCODING 69
SWIDTH 620 0
DWIDTH 31 0
BBX 33 30 1 -1
BITMAP
0007FFFF00
003FFFFF00
00E1E00600
0181E00200
0301C00200
0601C00600
0C03C00000
0803C00000
1803800000
1003800000
3007800000
3007804000
3007004000
300FFFC000
380FFFC000
380F00C000
3C0E008000
1C1E000000
181E000000
001E000000
001C000000
003C000000
003C000000
0038000E00
0078000E00
0070000E00
00F0000E00
01FFFC0C00
0FFFFFF800
0C001FE000
ENDCHAR

STARTCHAR F
ENCODING 70
SWIDTH 580 0
DWIDTH 29 0
BBX 33 29 4 0
BITMAP
0007FFFE00
003FFFFE00
00E1E00C00
0181E00400
0301C00400
0603C00C00
0C03C00000
1803800000
1803800000
3007800000
3007808000
3007008000
3007FF8000
300FFF8000
380F018000
380E010000
3C1E010000
181E000000
001E000000
001C000000
003C000000
003C000000
003C000000
0038000000
0078000000
0078000000
00F0000000
03F0000000
07FF800000
ENDCHAR

STARTCHAR G
ENCODING 71
SWIDTH 620 0
DWIDTH 31 0
BBX 31 43 4 -13
BITMAP
0000FFC0
0007E1F8
000F0078
003C0038
00780038
00F00010
01E00010
03C00010
07800010
07800010
0F000000
0F000000
1E000000
1E000000
1E000000
3E000000
3C000000
3C000000
3C000000
3C007FE0
3C000F80
3C000F00
3C000F00
3E000F00
1E000E00
1F000E00
0F001E00
0F801E00
07E0FC00
03FFDC00
007F3C00
00003C00
00003800
00007800
00007000
00007000
0000E000
0000E000
0601C000
0F038000
07870000
03FE0000
01F80000
ENDCHAR

STARTCHAR H
ENCODING 72
SWIDTH 680 0
DWIDTH 34 0
BBX 46 33 0 -2
BITMAP
0000000003E0
000000000FF0
000000003C78
0003FC007838
001FFC007000
00707800F000
00C07800E000
01807801E000
03007001C000
0300F003C000
0700F003C000
0700E0038000
0781E0078000
0381E0078000
0301E0070000
0001C1FF0000
0003FFFF0000
0003F00E0000
0003C00E0000
0003801E0000
0007801E0000
0007801C0000
0007001C0000
000F003C0000
000F003C0000
000E003C0000
001E00380000
001C00780000
003C00780000
303800780000
387000F80000
3CE000FFC000
1F8000000000
ENDCHAR

STARTCHAR I
ENCODING 73
SWIDTH 380 0
DWIDTH 19 0
BBX 23 29 2 0
BITMAP
0003FC
007FF0
000780
000700
000F00
000F00
000F00
000E00
001E00
001E00
001C00
001C00
003C00
003C00
003800
003800
007800
007800
007000
007000
00F000
00F000
00E000
00E000
01E000
01E000
03C000
07C000
3FFC00
ENDCHAR

STARTCHAR J
ENCODING 74
SWIDTH 400 0
DWIDTH 20 0
BBX 28 36 -2 -7
BITMAP
00003FC0
0003FF80
00070780
001C0780
00180700
00300F00
00200F00
00600E00
00601E00
00701E00
00701C00
00701C00
00003C00
00003C00
00003800
00007800
00007800
00007000
0000F000
0000F000
0000F000
0000E000
0001E000
0001E000
0001E000
0003C000
0003C000
00038000
00078000
00070000
00070000
300E0000
3C1C0000
3E180000
1FF00000
07800000
ENDCHAR

STARTCHAR K
ENCODING 75
SWIDTH 660 0
DWIDTH 33 0
BBX 38 36 3 -7
BITMAP
007FC07FE0
03F7801F00
0707801C00
0C07801800
1807007000
300F00E000
300F018000
700E030000
700E0E0000
781E1C0000
381E300000
001CE00000
001FC00000
003FE00000
003DE00000
0038F00000
0078F00000
0078780000
0078780000
0070380000
00F03C0000
00F03C0000
00F01C0000
01E01E0000
01E01E0000
01E00E0000
03E00F0000
07E0070000
3FFC070000
0000038000
0000038000
000001C038
000001E038
000000F070
00000038F0
0000001FC0
ENDCHAR

STARTCHAR L
ENCODING 76
SWIDTH 580 0
DWIDTH 29 0
BBX 30 30 1 -1
BITMAP
00000F80
00003FC0
0000E1E0
0001C0E0
00038000
00038000
00070000
000F0000
000E0000
001E0000
001E0000
001C0000
003C0000
003C0000
003C0000
00380000
00780000
00780000
00780000
00700000
00F00000
00F00000
00E00030
01E00038
01E00038
01C00038
03C00030
07FFF030
3FFFFFE0
00007F80
ENDCHAR

STARTCHAR M
ENCODING 77
SWIDTH 840 0
DWIDTH 42 0
BBX 44 31 2 -2
BITMAP
0000020000C0
0007FE0001C0
003C3E000380
00603E000780
01803E000F80
03003E001F00
02006E001F00
06006E003F00
04006E006F00
0C006E00CE00
0C004E00DE00
0E00CE019E00
0E00CE031E00
0F00CE031C00
0700CF063C00
03008F0C3C00
00018F0C3C00
00018F183800
00010F307800
00030F307800
000307607800
000607407000
000607C0F000
000C0780F000
000C0780F000
00180700E000
00300701E000
00600601E000
3FC00401E000
7F800403FF00
3E0000000000
ENDCHAR

STARTCHAR N
ENCODING 78
SWIDTH 700 0
DWIDTH 35 0
BBX 46 33 1 -3
BITMAP
0000000001E0
0000380007F0
0007FC000FF0
003E3C001820
00703C003000
01C07C003000
01807E006000
03007E006000
02007E006000
06004E00C000
0600CF00C000
0600CF00C000
0700C7018000
070087818000
078087818000
030183810000
000183C30000
000103C30000
000101E30000
000301E20000
000301E20000
000200F60000
000600F60000
000600F40000
0006007C0000
000C007C0000
000C003C0000
0018003C0000
001800380000
703000180000
786000180000
3FC000080000
1F8000000000
ENDCHAR

STARTCHAR O
ENCODING 79
SWIDTH 600 0
DWIDTH 30 0
BBX 30 31 4 -1
BITMAP
0003F800
001FFE00
00381F80
00E007C0
01C003E0
038003E0
030001F0
070001F0
0E0000F0
0E0000F8
1E0000F8
1C0000F8
3C0000F8
3C0000F8
3C0000F8
3C0000F0
3C0000F0
7C0000F0
7C0000F0
7C0000E0
7C0001E0
7C0001C0
3C0003C0
3E000380
3E000700
1F000700
1F800E00
0FC01C00
07E07000
01FFE000
007F0000
ENDCHAR

STARTCHAR P
ENCODING 80
SWIDTH 540 0
DWIDTH 27 0
BBX 33 31 2 -1
BITMAP
0001FFC000
000F83F000
0038007800
00E0003C00
01C0E03E00
0307E01E00
0603E01E00
0C01C01E00
0803C01E00
1803C03E00
1003C03C00
3003803C00
2007807800
200780F000
600781E000
6007078000
600FFE0000
600F000000
600F000000
300E000000
381E000000
3C1E000000
1E1E000000
0C1C000000
003C000000
003C000000
003C000000
0078000000
00F8000000
03F8100000
07FFF00000
ENDCHAR

STARTCHAR Q
ENCODING 81
SWIDTH 600 0
DWIDTH 30 0
BBX 38 43 4 -13
BITMAP
0003F80000
001FFF0000
00381F8000
00E007C000
01C003E000
038001E000
030001F000
070001F000
0E0000F000
0E0000F800
1E0000F800
1C0000F800
3C0000F800
3C0000F800
3C0000F800
3C0000F000
7C0000F000
7C0000F000
7C0000F000
7C0001E000
7C0001E000
7C0001C000
3E0003C000
3E00038000
3E00070000
1F000E0000
0F801C0000
07C0380000
03F9F00000
00FF800000
003F000000
000F800000
0007C00000
0003E00000
0001F00000
0001F80000
0000FC0000
00003E0010
00001F0038
00000F8070
000007E0F0
000001FFC0
0000003E00
ENDCHAR

STARTCHAR R
ENCODING 82
SWIDTH 600 0
DWIDTH 30 0
BBX 38 37 4 -7
BITMAP
0001FC0000
001FFF8000
007807C000
01C001E000
038181F000
061F80F000
0C0F80F000
180700F000
180F00F000
300F00F000
300F01E000
200E03C000
601E038000
601E0F0000
601FFC0000
601FE00000
603CE00000
703CE00000
383CF00000
3C38700000
1C78780000
0078780000
0078380000
00703C0000
00F03C0000
00F01C0000
00F01E0000
01E01E0000
07E00E0000
1FFE0F0000
0000078000
0000038000
000003C038
000001E038
000000F070
00000038F0
0000001FC0
ENDCHAR

STARTCHAR S
ENCODING 83
SWIDTH 460 0
DWIDTH 23 0
BBX 28 32 0 -2
BITMAP
00007FC0
0001C3C0
000701C0
000601C0
000E00C0
001C0080
001C0080
003C0080
003C0080
003C0000
003E0000
001E0000
001F0000
000F8000
0007C000
0007E000
0003F000
0001F800
0000F800
00007C00
00003C00
00003C00
00003C00
00003C00
30003800
78003800
78007000
78007000
3C00E000
3E03C000
1F0F0000
03FC0000
ENDCHAR

STARTCHAR T
ENCODING 84
SWIDTH 500 0
DWIDTH 25 0
BBX 37 33 2 0
BITMAP
0000000040
00000000E0
00000000E0
00000000E0
001FFF81C0
007FFFFF80
01F01FFC00
03801E0000
06003C0000
0C003C0000
18003C0000
1800380000
3000780000
3000780000
3000780000
3800700000
3800F00000
3C00F00000
1C00F00000
1C00E00000
0001E00000
0001E00000
0001E00000
0001C00000
0003C00000
0003C00000
0003C00000
0007800000
0007800000
0007800000
000F800000
003F020000
00FFFC0000
ENDCHAR

STARTCHAR U
ENCODING 85
SWIDTH 740 0
DWIDTH 37 0
BBX 37 35 4 -1
BITMAP
0000000080
00000001C0
00000001E0
00000000E0
00000000E0
00004000E0
00FFC00060
03E3800060
0E03800060
1C07000060
1007000060
300F000060
300E000060
701E000040
781C0000C0
781C0000C0
383C0000C0
0038000080
0078000180
0078000180
0070000300
0070000300
00F0000300
00F0000600
00F0000E00
00F0000C00
00F0001800
00F0003800
00F8007000
00F800E000
007C01C000
007F0F8000
003FFF0000
001FFC0000
0007F00000
ENDCHAR

STARTCHAR V
ENCODING 86
SWIDTH 640 0
DWIDTH 32 0
BBX 38 35 3 -1
BITMAP
0000000070
0000000078
0000000078
0000000038
0000000038
000FF00038
007DE00038
01C1C00030
0303C00070
0607800060
0C078000E0
18070000C0
180F000180
300F000300
300E000700
300E000600
381E000C00
381E001800
181E003000
001E006000
001E00C000
001E018000
000E030000
000E060000
000E0C0000
000E180000
000E300000
000E600000
000EC00000
000F800000
000F000000
000F000000
000E000000
000C000000
0008000000
ENDCHAR

STARTCHAR W
ENCODING 87
SWIDTH 880 0
DWIDTH 44 0
BBX 50 37 3 -2
BITMAP
00000000000200
00000000000700
00000000000780
00000000000380
00000000000380
00002000800380
000FC001800380
007FC003800380
01C38007800300
0307800F000300
060F000F000600
0C0F001F000600
180E0037000C00
101E0067000C00
301E006F001800
301C00CF001800
303C018F003000
383C018F006000
383C030E006000
183C020E00C000
003C060E018000
003C0C0E030000
003C080E030000
003C180E060000
003C300E0C0000
003C600E180000
003C600E180000
003CC00E300000
001D800E600000
001F800EC00000
001F000F800000
001E000F800000
001C000F000000
0018000E000000
0018001C000000
00100018000000
00000010000000
ENDCHAR

STARTCHAR X
ENCODING 88
SWIDTH 560 0
DWIDTH 28 0
BBX 40 35 -2 -3
BITMAP
000000007E
00000000FE
00000001FC
0007F00780
0008700600
0000780C00
0000781800
0000783000
0000786000
000078C000
000038C000
00003D8000
00003F0000
00003E0000
00001E0000
00001E0000
00001E0000
00003E0000
00003E0000
00006F0000
0000CF0000
0000C70000
0001870000
0003070000
0007078000
0006078000
000C078000
0018078000
0038078000
0070078000
00E0078000
03C007F800
3F80000000
7F00000000
3C00000000
ENDCHAR

STARTCHAR Y
ENCODING 89
SWIDTH 560 0
DWIDTH 28 0
BBX 38 33 4 -1
BITMAP
0000000070
00000001F8
00000003F0
0002000780
001E000C00
00FF001800
038F803000
0607806000
0C03C0E000
1803C0C000
3003C18000
3001E10000
2001E30000
6001E60000
6000E60000
6000EC0000
7000E80000
3800F80000
3800F80000
0000F00000
0000F00000
0001E00000
0001E00000
0001E00000
0001C00000
0003C00000
0003C00000
0003C00000
0003800000
0007800000
0007800000
001F820000
003FFC0000
ENDCHAR

STARTCHAR Z
ENCODING 90
SWIDTH 620 0
DWIDTH 31 0
BBX 34 30 2 -1
BITMAP
000FFC0700
003FFFFE00
0031FFFC00
00603FF800
0060007000
007000E000
007801C000
0038038000
0000070000
00000E0000
00000C0000
0000180000
0000300000
0000600000
0000C00000
0001800000
0003000000
0006000000
000C000000
0018000000
0030000000
0060000000
00C0000000
0180000E00
0300000E00
0600000E00
0E7FE00E00
1FFFFE0C00
3FFFFFF800
38003FF000
ENDCHAR

STARTCHAR bracketleft
ENCODING 91
SWIDTH 240 0
DWIDTH 12 0
BBX 20 43 2 -9
BITMAP
001FC0
001FC0
003800
003800
003800
003000
007000
007000
007000
006000
00E000
00E000
00E000
00E000
00C000
01C000
01C000
01C000
018000
038000
038000
038000
030000
030000
070000
070000
070000
060000
0E0000
0E0000
0E0000
0C0000
1C0000
1C0000
1C0000
1C0000
180000
380000
380000
380000
300000
7F8000
7F8000
ENDCHAR

STARTCHAR backslash
ENCODING 92
SWIDTH 480 0
DWIDTH 24 0
BBX 16 43 9 -9
BITMAP
3000
3000
3800
3800
1800
1800
1C00
1C00
1C00
0C00
0E00
0E00
0E00
0600
0700
0700
0700
0300
0300
0380
0380
0180
0180
01C0
01C0
00C0
00C0
00E0
00E0
0060
0060
0070
0070
0030
0030
0038
0038
0018
0018
001C
001C
001C
000C
ENDCHAR

STARTCHAR bracketright
ENCODING 93
SWIDTH 320 0
DWIDTH 16 0
BBX 20 43 0 -9
BITMAP
001FE0
001FC0
0001C0
0001C0
0001C0
000180
000380
000380
000380
000380
000300
000700
000700
000700
000600
000E00
000E00
000E00
000C00
000C00
001C00
001C00
001C00
001800
003800
003800
003800
003000
003000
007000
007000
007000
006000
00E000
00E000
00E000
00C000
00C000
01C000
01C000
018000
3F8000
3F8000
ENDCHAR

STARTCHAR asciicircum
ENCODING 94
SWIDTH 520 0
DWIDTH 26 0
BBX 15 8 11 21
BITMAP
0380
07C0
07C0
0EE0
1EF0
1C70
3838
3018
ENDCHAR

STARTCHAR underscore
ENCODING 95
SWIDTH 500 0
DWIDTH 25 0
BBX 29 3 -2 -6
BITMAP
3FFFFFE0
3FFFFFE0
3FFFFFE0
ENDCHAR

STARTCHAR quoteleft
ENCODING 96
SWIDTH 240 0
DWIDTH 12 0
BBX 10 12 8 22
BITMAP
0100
0300
0600
0C00
1C00
1800
3800
3C00
3C00
3C00
3C00
0800
ENDCHAR

STARTCHAR a
ENCODING 97
SWIDTH 420 0
DWIDTH 21 0
BBX 23 22 3 -1
BITMAP
000030
0007F0
003FE0
007FE0
00C1E0
0181C0
0301C0
0603C0
0E03C0
0C0380
1C0380
180780
380780
380700
380F00
780F00
781F08
783F18
7CEF60
7FCFC0
3F0F80
1E0E00
ENDCHAR

STARTCHAR b
ENCODING 98
SWIDTH 420 0
DWIDTH 21 0
BBX 22 35 4 -1
BITMAP
0001E0
0007F0
001FF0
0030E0
006000
00E000
00E000
01C000
01C000
03C000
03C000
038000
038000
078000
078780
071FC0
077FE0
0FC3E0
0F81E0
0F81E0
0F01E0
1E01E0
1E01E0
1C01E0
1C01C0
1C03C0
3C0380
380380
380700
380700
380E00
381C00
3C3800
1FE000
078000
ENDCHAR

STARTCHAR c
ENCODING 99
SWIDTH 340 0
DWIDTH 17 0
BBX 19 22 3 -1
BITMAP
003F00
00FF80
018F80
030300
060000
060000
0C0000
1C0000
1C0000
180000
380000
380000
380000
780000
780000
780000
780600
7C0C00
7C3800
3FF000
3FC000
0E0000
ENDCHAR

STARTCHAR d
ENCODING 100
SWIDTH 440 0
DWIDTH 22 0
BBX 32 36 3 -1
BITMAP
0000001C
000000FE
000003FE
0000061C
00000C00
00001C00
00003800
00003800
00003800
00007000
00007000
0000F000
0000F000
0000E000
001FE000
003FE000
00E3E000
0181E000
0181C000
0301C000
0603C000
0E03C000
0C038000
1C038000
1C038000
3C078000
38078000
38070000
380F0000
780F0000
781F0800
783F1800
7CEF7000
7FCFC000
3F8F8000
1E0E0000
ENDCHAR

STARTCHAR e
ENCODING 101
SWIDTH 340 0
DWIDTH 17 0
BBX 18 22 3 -1
BITMAP
003E00
007F00
01CF80
038780
070780
060700
0E0700
0E0E00
1C1C00
1C7000
3DE000
3F0000
3C0000
780000
780000
780200
780600
781C00
7C7800
7FE000
3FC000
1F0000
ENDCHAR

STARTCHAR f
ENCODING 102
SWIDTH 320 0
DWIDTH 16 0
BBX 38 47 -9 -13
BITMAP
00000001E0
00000007F8
0000001FF8
0000003070
0000006000
000000C000
000001C000
000001C000
0000038000
0000038000
0000078000
0000070000
0000070000
00000F0000
00000F0000
0003FFFC00
0003FFFC00
00001E0000
00001E0000
00001C0000
00001C0000
00003C0000
00003C0000
00003C0000
0000380000
0000780000
0000780000
0000780000
0000700000
0000F00000
0000F00000
0000F00000
0000E00000
0001E00000
0001E00000
0001C00000
0001C00000
0001C00000
0003800000
0003800000
0003000000
0006000000
000C000000
081C000000
3FF0000000
3FE0000000
1F80000000
ENDCHAR

STARTCHAR g
ENCODING 103
SWIDTH 400 0
DWIDTH 20 0
BBX 26 34 -2 -13
BITMAP
00000300
00007F00
0003FE00
0007FE00
000C1E00
00181C00
00301C00
00603C00
00E03C00
00C03800
01C03800
01C07800
03807800
03807000
0380F000
0380F000
0381F000
0783E000
07ECE000
03F8E000
03B0E000
00C0E000
0380E000
0E00E000
1C00E000
3801E000
3001C000
7001C000
7003C000
70078000
780F0000
381E0000
1FFC0000
07E00000
ENDCHAR

STARTCHAR h
ENCODING 104
SWIDTH 440 0
DWIDTH 22 0
BBX 23 36 3 -1
BITMAP
000070
0003F8
000FF8
001870
003000
007000
007000
00E000
00E000
00E000
01E000
01C000
01C000
01C000
03C0E0
03C3F0
0387F0
039CF0
03B0F0
07E0E0
07C1E0
0781E0
0781E0
0F01C0
0F03C0
0E03C0
0E0380
0E0780
1E0780
1C0700
1C0708
1C0F18
3C0F30
3C0FE0
380F80
000700
ENDCHAR

STARTCHAR i
ENCODING 105
SWIDTH 240 0
DWIDTH 12 0
BBX 16 32 2 -1
BITMAP
0018
003C
003C
003C
0018
0000
0000
0000
0000
0000
0000
01E0
03E0
0FE0
19E0
31C0
21C0
03C0
0380
0380
0780
0780
0700
0F00
0F00
0E00
0E10
1E30
1E60
1FC0
1F00
0E00
ENDCHAR

STARTCHAR j
ENCODING 106
SWIDTH 220 0
DWIDTH 11 0
BBX 26 44 -7 -13
BITMAP
00000600
00000F00
00000F00
00000F00
00000600
00000000
00000000
00000000
00000000
00000000
00000000
00003800
0000F800
0003F800
00067800
000C7000
00087000
0000F000
0000F000
0000E000
0001E000
0001E000
0001C000
0001C000
0003C000
0003C000
00038000
00038000
00078000
00078000
00070000
00070000
000F0000
000E0000
000E0000
000E0000
001C0000
001C0000
00180000
00380000
00300000
3C600000
3FC00000
1F800000
ENDCHAR

STARTCHAR k
ENCODING 107
SWIDTH 440 0
DWIDTH 22 0
BBX 31 44 3 -9
BITMAP
00007000
0003F800
000FF800
001C7000
00380000
00700000
00700000
00E00000
00E00000
00E00000
00E00000
01C00000
01C00000
01C00000
03C1E000
03C7F000
038CF000
03B07000
07E07000
07C07000
0780E000
0701C000
07078000
0FFE0000
0FC00000
0E600000
0E380000
1E380000
1E1C0000
1C1E0000
1C0E0000
3C0F0000
3C070000
3C078000
38038000
00038000
0003C000
0001C000
0000E018
0000F01C
0000701C
00003818
00001E38
000007E0
ENDCHAR

STARTCHAR l
ENCODING 108
SWIDTH 240 0
DWIDTH 12 0
BBX 22 36 3 -1
BITMAP
0000F0
0007F8
000FF8
0018F0
003000
007000
00E000
00E000
00E000
01C000
01C000
01C000
03C000
03C000
038000
038000
078000
078000
070000
070000
0F0000
0F0000
0E0000
0E0000
1E0000
1E0000
1C0000
1C0000
1C0000
3C1000
3C3000
386000
39C000
3F8000
3E0000
180000
ENDCHAR

STARTCHAR m
ENCODING 109
SWIDTH 620 0
DWIDTH 31 0
BBX 33 22 2 -1
BITMAP
00E0703800
03E1F0FC00
0FE7F1FC00
19CCF73C00
31D8FC3C00
21F0F83800
03E0F03800
03C0F07800
03C1E07800
0381E07000
0781C0F000
0781C0F000
0703C0E000
0703C1E000
0F0381E000
0F0381C000
0E0381C200
0E0783C600
0E0703CC00
1E0703F800
1E0701E000
000001C000
ENDCHAR

STARTCHAR n
ENCODING 110
SWIDTH 460 0
DWIDTH 23 0
BBX 24 22 3 -1
BITMAP
01C070
07C1F8
0FC7F8
13CE78
23D870
03B070
03E0F0
03C0F0
0780E0
0780E0
0701E0
0701C0
0F01C0
0F03C0
0E0380
0E0380
0E0384
1E078C
1E0798
1C07F0
1C03C0
000380
ENDCHAR

STARTCHAR o
ENCODING 111
SWIDTH 400 0
DWIDTH 20 0
BBX 22 22 2 -1
BITMAP
000F80
007FC0
00E3E0
0181E0
0381F0
0700F0
0E00F0
0E00F0
1E00F0
1E00F0
1C00F0
3C00F0
3C00E0
3C01E0
3C01C0
3C01C0
3E0380
3E0300
1E0600
1F0C00
0FF800
03C000
ENDCHAR

STARTCHAR p
ENCODING 112
SWIDTH 440 0
DWIDTH 22 0
BBX 28 34 -2 -13
BITMAP
000E0780
003F1FC0
007F3FE0
00CE73E0
018EC1E0
031F81E0
001F01E0
001E01E0
001E01C0
001C01C0
003C01C0
003C01C0
00380380
00380380
00780300
00780700
00700600
00700C00
00F01800
00FC3000
00FFE000
00E78000
00E00000
01E00000
01C00000
01C00000
01C00000
03C00000
03800000
03800000
07800000
07C00000
3FFC0000
301C0000
ENDCHAR

STARTCHAR q
ENCODING 113
SWIDTH 400 0
DWIDTH 20 0
BBX 22 34 3 -13
BITMAP
000018
0007F0
001FF0
007FF0
00C0F0
0180E0
0300E0
0601E0
0E01E0
0C01C0
1C03C0
1C03C0
380380
380780
380780
780F80
781F80
783700
7CE700
3FCF00
3F8F00
1E0E00
000E00
001E00
001E00
001C00
001C00
003C00
003C00
003800
007800
007800
03FE00
0FFF00
ENDCHAR

STARTCHAR r
ENCODING 114
SWIDTH 300 0
DWIDTH 15 0
BBX 20 22 3 0
BITMAP
0001C0
01C3E0
03C7C0
0FCF00
1BDC00
23D800
43B000
03E000
03C000
078000
078000
070000
070000
0F0000
0F0000
0E0000
0E0000
1E0000
1E0000
1C0000
1C0000
3C0000
ENDCHAR

STARTCHAR s
ENCODING 115
SWIDTH 320 0
DWIDTH 16 0
BBX 19 22 2 -1
BITMAP
003F80
00E7C0
01C3C0
0181C0
038000
038000
03C000
03C000
01E000
01F000
00F800
00FC00
007E00
003E00
001E00
001E00
300E00
780E00
781C00
381C00
3C7000
1FE000
ENDCHAR

STARTCHAR t
ENCODING 116
SWIDTH 320 0
DWIDTH 16 0
BBX 16 26 4 -1
BITMAP
00E0
01E0
01C0
01C0
03C0
03C0
3FFC
3FFC
0780
0780
0700
0700
0F00
0F00
0E00
0E00
1E00
1E00
1C00
1C00
3C1C
3C30
3CE0
3FC0
3F00
1C00
ENDCHAR

STARTCHAR u
ENCODING 117
SWIDTH 460 0
DWIDTH 23 0
BBX 24 21 3 0
BITMAP
01C000
07C038
0FC078
1BC078
33C070
03C070
03C0F0
0380E0
0380E0
0781E0
0701E0
0701C0
0F03C0
0F03C0
0E07C0
0E0F84
1E1B8C
1E7398
1FE7F0
1F83E0
0E0380
ENDCHAR

STARTCHAR v
ENCODING 118
SWIDTH 440 0
DWIDTH 22 0
BBX 26 22 1 -1
BITMAP
00020600
01FF0700
0FFE0700
1C1C0700
30380300
30780300
38F00300
38F00200
00F00600
01E00600
01E00C00
01E00C00
01E01800
01E03000
01E06000
01E0E000
00E1C000
00F38000
00F60000
00FC0000
00F00000
00600000
ENDCHAR

STARTCHAR w
ENCODING 119
SWIDTH 680 0
DWIDTH 34 0
BBX 37 22 2 -1
BITMAP
00020200E0
01FE0700E0
0F8E0F00E0
181C0F0060
30380F0060
30781F0060
38F01F0060
10F01E0040
01F01E00C0
01E01C00C0
01E01C0180
01E01C0180
01E01C0300
01E03E0600
01E07E0C00
01E0DE1C00
00E19E3800
00F31E7000
00F60EC000
00FC0F8000
00F00F0000
00600C0000
ENDCHAR

STARTCHAR x
ENCODING 120
SWIDTH 420 0
DWIDTH 21 0
BBX 31 29 0 -7
BITMAP
000001C0
001807C0
007C0FC0
00FE1C00
011E3000
021E6000
000EC000
000E8000
000F0000
000F0000
00070000
00070000
000F0000
001F8000
00378000
00238000
00638000
00C3C000
2183C000
7301C000
7E01C000
3C01E000
0000E000
0000E000
00007000
00007818
00003838
00001E78
000007E0
ENDCHAR

STARTCHAR y
ENCODING 121
SWIDTH 400 0
DWIDTH 20 0
BBX 27 34 -3 -13
BITMAP
001C0180
003E03C0
00FE03C0
01DF01C0
010F01C0
000781C0
00078180
00038180
0003C180
0001C180
0001C100
0001C300
0001E300
0001E200
0000E600
0000E600
0000EC00
0000EC00
0000F800
0000F800
0000F000
0000E000
0000E000
0000C000
0001C000
00018000
00030000
00060000
000E0000
001C0000
3C380000
7FE00000
7FC00000
3F000000
ENDCHAR

STARTCHAR z
ENCODING 122
SWIDTH 440 0
DWIDTH 22 0
BBX 25 22 0 -1
BITMAP
003F0600
007FFC00
00FFFC00
00803800
00807000
00E0C000
00618000
00030000
00060000
000C0000
00180000
00300000
00600000
00C00000
01801C00
03001C00
06000C00
0FE00C00
1FFC0800
3FFFF800
707FE000
000F8000
ENDCHAR

STARTCHAR braceleft
ENCODING 123
SWIDTH 240 0
DWIDTH 12 0
BBX 19 43 3 -9
BITMAP
0001C0
000F00
001C00
003800
007000
007000
006000
00E000
00E000
00E000
00C000
01C000
01C000
01C000
018000
038000
038000
038000
030000
070000
0E0000
3C0000
0C0000
0E0000
0E0000
0E0000
0E0000
0E0000
1C0000
1C0000
1C0000
380000
380000
380000
380000
300000
700000
700000
700000
700000
780000
3C0000
030000
ENDCHAR

STARTCHAR bar
ENCODING 124
SWIDTH 520 0
DWIDTH 26 0
BBX 5 46 15 -12
BITMAP
70
70
70
70
70
70
70
70
70
70
70
70
70
70
70
70
70
70
70
70
70
70
70
70
70
70
70
70
70
70
70
70
70
70
70
70
70
70
70
70
70
70
70
70
70
70
ENDCHAR

STARTCHAR braceright
ENCODING 125
SWIDTH 240 0
DWIDTH 12 0
BBX 19 43 -3 -9
BITMAP
001C00
000780
0001C0
0001C0
0001C0
0001C0
0001C0
0001C0
000180
000380
000380
000380
000700
000700
000700
000700
000E00
000E00
000E00
000E00
000600
000380
000E00
001C00
001800
003800
003800
003800
003000
007000
007000
007000
007000
006000
00E000
00E000
00C000
01C000
01C000
038000
038000
0E0000
700000
ENDCHAR

STARTCHAR asciitilde
ENCODING 126
SWIDTH 520 0
DWIDTH 26 0
BBX 25 7 5 10
BITMAP
03C00600
0FF80600
0FFE1E00
1C3FFC00
3807F800
3001E000
10000000
ENDCHAR

STARTCHAR space
ENCODING 160
SWIDTH 220 0
DWIDTH 13 0
BBX 0 0 0 0
BITMAP
ENDCHAR

STARTCHAR Aogonek
ENCODING 161
SWIDTH 620 0
DWIDTH 31 0
BBX 37 40 -4 -10
BITMAP
0000000040
00000003C0
000001FFC0
00000FC3C0
00001C0780
0000300F80
0000601B80
0000601B80
0000E03780
0000E06780
0000E0C780
000060C700
0000018700
0000030700
0000030F00
0000060F00
00000C0F00
00000C0F00
0000180E00
0000300E00
00003FFE00
00007FFE00
0000C01E00
0000C01E00
0001801E00
0003001E00
0003001E00
0006001C00
000C003C00
001C003E00
0038003FE0
0070006000
00E000C000
3FC000C000
3F8000C000
3E0001C000
000001C000
000001E000
000000FC00
0000007C00
ENDCHAR

STARTCHAR afii240
ENCODING 162
SWIDTH 444 0
DWIDTH 22 0
BBX 31 22 -5 0
BITMAP
01FFCFF8
003F07C0
003E0700
003E0600
003C0800
003C1000
003C2000
0038C000
0079C000
007BE000
007FE000
007DE000
00F8E000
00F0F000
00F0F000
00E07000
01E07800
01E07800
01E07C00
03E07C00
07F0FF00
3FF9FFE0
ENDCHAR

STARTCHAR Rcommaaccent
ENCODING 163
SWIDTH 600 0
DWIDTH 30 0
BBX 38 42 4 -12
BITMAP
0001FC0000
001FFF8000
007807C000
01C003E000
038181F000
061F80F000
0C0F80F000
180F00F000
180F00F000
300F00F000
300F01E000
200E03C000
601E038000
601E0F0000
601FFC0000
601FE00000
603CE00000
703CE00000
383CF00000
3C38700000
1C78780000
0078780000
0078380000
00703C0000
00F03C0000
00F01C0000
00F01E0000
01E01E0000
07E00F0000
1FFE0F0000
0000070000
0000038000
000603C038
000F01E038
000F00F070
00070038F0
0007001FC0
0006000000
0004000000
000C000000
0018000000
0030000000
ENDCHAR

STARTCHAR currency
ENCODING 164
SWIDTH 600 0
DWIDTH 30 0
BBX 25 21 7 4
BITMAP
103F0400
39FFCE00
1FFFFC00
0FC0F800
0F007800
1E003C00
1C001C00
1C000E00
38000E00
38000E00
38000E00
38000E00
38000E00
1C000E00
1C001C00
1E003C00
0F007800
0FC1F800
3FFFFC00
39FF8E00
103E0400
ENDCHAR

STARTCHAR Itilde
ENCODING 165
SWIDTH 380 0
DWIDTH 19 0
BBX 26 39 2 0
BITMAP
00078100
000FE300
001FFE00
0011FE00
00307800
00000000
00000000
00000000
00000000
00000000
0003FC00
007FF000
00078000
00070000
000F0000
000F0000
000F0000
000E0000
001E0000
001E0000
001C0000
001C0000
003C0000
003C0000
00380000
00380000
00780000
00780000
00700000
00700000
00F00000
00F00000
00E00000
00E00000
01E00000
01E00000
03C00000
07C00000
3FFC0000
ENDCHAR

STARTCHAR Lcommaaccent
ENCODING 166
SWIDTH 580 0
DWIDTH 29 0
BBX 30 42 1 -13
BITMAP
00000F80
00003FC0
0000E1E0
0001C0E0
00038000
00038000
00070000
000F0000
000E0000
001E0000
001E0000
001C0000
003C0000
003C0000
00380000
00380000
00780000
00780000
00700000
00700000
00F00000
00F00000
00E00030
01E00038
01E00038
01C00038
03C00030
07FFF030
3FFFFFE0
0000FF80
00000000
00000000
00030000
00078000
00078000
00038000
00030000
00030000
00060000
000C0000
00180000
00100000
ENDCHAR

STARTCHAR section
ENCODING 167
SWIDTH 420 0
DWIDTH 21 0
BBX 32 44 -3 -9
BITMAP
000003F0
00000FF8
00003C3C
0000781E
0000D00E
0001B000
0003B000
00033000
00063000
00063000
000E3000
000C3800
000C3800
000C1800
001C1800
001C1800
001C1C00
001C1C00
001C1C00
001C0C00
000C0C00
000C0E00
000E0E00
000E0E00
000E0E00
00060E00
00060E00
00070E00
00070E00
00070C00
00030C00
00030C00
00030C00
00031800
00031800
00033000
00033000
00036000
0006C000
30078000
7C0F0000
3E1E0000
1FF80000
07C00000
ENDCHAR

STARTCHAR hungarumlaut
ENCODING 168
SWIDTH 400 0
DWIDTH 20 0
BBX 20 8 3 23
BITMAP
07E7C0
07CF80
0F8F00
0F1E00
1E3C00
183800
307000
206000
ENDCHAR

STARTCHAR Scaron
ENCODING 169
SWIDTH 460 0
DWIDTH 23 0
BBX 30 43 0 -2
BITMAP
00006030
000060E0
000071C0
00003780
00003F00
00003E00
00003C00
00000000
00000000
00000000
00000000
00007FC0
0001C3C0
000301C0
000601C0
000E0080
001C0080
001C0080
003C0080
003C0080
003C0000
003E0000
001E0000
001F0000
000F8000
0007C000
0007E000
0003F000
0001F800
0000F800
00007C00
00003C00
00003C00
00003C00
00003C00
30003800
78003800
78007000
78007000
3C00E000
3E03C000
1F0F0000
03FC0000
ENDCHAR

STARTCHAR Emacron
ENCODING 170
SWIDTH 620 0
DWIDTH 31 0
BBX 33 36 1 -1
BITMAP
00003FFC00
00003FF800
0000000000
0000000000
0000000000
0000000000
0003FFFF00
003FFFFF00
00F1E00600
0181E00200
0301C00200
0603C00600
0C03C00000
0803C00000
1803800000
1807800000
3007800000
3007804000
3007004000
300FFFC000
380FFFC000
380F00C000
3C0E008000
1C1E000000
081E000000
001E000000
003C000000
003C000000
003C000000
0038000E00
0078000E00
0070000E00
00F0000E00
01FFFC0C00
0FFFFFF800
08001FE000
ENDCHAR

STARTCHAR Gcommaaccent
ENCODING 171
SWIDTH 620 0
DWIDTH 31 0
BBX 31 42 5 -13
BITMAP
00007C00
0003FFF0
000F80F8
001E0078
00780038
00F00030
01E00010
03C00010
03C00010
07800010
0F000000
0F000000
1E000000
1E000000
1E000000
3E000000
3C000000
3C000000
3C000000
3C00FFC0
3C000F80
3C000F00
3E000F00
3E000E00
1E000E00
1F001E00
0F801E00
07E07C00
03FFFC00
00FF0000
00000000
00000000
00180000
003C0000
003C0000
001C0000
00180000
00180000
00300000
00600000
00C00000
00800000
ENDCHAR

STARTCHAR afii237
ENCODING 172
SWIDTH 556 0
DWIDTH 28 0
BBX 33 33 1 0
BITMAP
03FFFFFE00
03FFFFFE00
03C0F01E00
0300F00E00
0600F00C00
0401E00C00
0401E00C00
0001E00800
0803E00800
0003C00000
0003C00000
0003C00000
0007800000
0007800000
0007800000
3FFFFFE000
3FFFFFE000
000F000000
001F000000
001E000000
001E000000
001E000000
003E000000
003C000000
003C000000
007C000000
0078000000
0078000000
00F8000000
00F8000000
01F8000000
03FC000000
1FFF800000
ENDCHAR

STARTCHAR hyphen
ENCODING 173
SWIDTH 280 0
DWIDTH 14 0
BBX 15 2 3 9
BITMAP
3FF8
7FF8
ENDCHAR

STARTCHAR Zcaron
ENCODING 174
SWIDTH 620 0
DWIDTH 31 0
BBX 34 41 2 -1
BITMAP
00000C0200
00000C0E00
0000061C00
0000067800
000007F000
000007E000
000003C000
0000000000
0000000000
0000000000
0000000000
000FFC0700
003FFFFE00
0031FFFC00
00603FF800
0060007000
007000E000
007801C000
0038038000
0000070000
0000060000
00000C0000
0000180000
0000300000
0000600000
0000C00000
0001800000
0003000000
0006000000
000C000000
0018000000
0030000000
0060000000
00C0000000
0180000E00
0300000E00
0700000E00
0E7FE00E00
1FFFFC0C00
3FFFFFF800
78003FF000
ENDCHAR

STARTCHAR macron
ENCODING 175
SWIDTH 440 0
DWIDTH 22 0
BBX 16 2 10 23
BITMAP
1FFC
3FF8
ENDCHAR

STARTCHAR degree
ENCODING 176
SWIDTH 400 0
DWIDTH 20 0
BBX 17 13 8 17
BITMAP
07F000
0FF800
1E3C00
180E00
380E00
300600
300600
300600
380E00
180C00
1E3C00
0FF800
03F000
ENDCHAR

STARTCHAR aogonek
ENCODING 177
SWIDTH 420 0
DWIDTH 21 0
BBX 23 31 2 -10
BITMAP
000010
0007F0
001FF0
007FE0
00E0E0
0181E0
0301C0
0601C0
0E01C0
0C03C0
1C0380
1C0380
380780
380780
380700
780F00
781F08
783718
7C6F30
7FCFE0
3F8FC0
3E0F00
000300
000600
000600
000600
000E00
000E00
000F00
0007E0
0003E0
ENDCHAR

STARTCHAR ogonek
ENCODING 178
SWIDTH 280 0
DWIDTH 14 0
BBX 10 10 2 -9
BITMAP
0800
1800
3000
3000
3000
7000
7000
7800
3F00
1F00
ENDCHAR

STARTCHAR rcommaaccent
ENCODING 179
SWIDTH 300 0
DWIDTH 15 0
BBX 22 35 1 -13
BITMAP
000030
0030F0
00F1F0
03F3E0
06F700
08E600
10EC00
00F800
01F000
01E000
01E000
01C000
03C000
03C000
038000
038000
078000
078000
070000
070000
0F0000
0F0000
000000
000000
000000
0F0000
0F0000
0F0000
070000
060000
060000
0C0000
180000
300000
200000
ENDCHAR

STARTCHAR acute
ENCODING 180
SWIDTH 300 0
DWIDTH 15 0
BBX 13 7 10 24
BITMAP
03E0
03C0
0780
0E00
0C00
1800
3000
ENDCHAR

STARTCHAR itilde
ENCODING 181
SWIDTH 240 0
DWIDTH 12 0
BBX 20 30 2 0
BITMAP
01E040
07F8C0
07FF80
0C7F00
081E00
000000
000000
000000
000000
03E000
07E000
0DE000
19E000
31C000
03C000
03C000
038000
038000
078000
070000
070000
0F0000
0F0000
0E0000
0E1000
1E3000
1E6000
1FC000
1F0000
0E0000
ENDCHAR

STARTCHAR lcommaaccent
ENCODING 182
SWIDTH 240 0
DWIDTH 12 0
BBX 24 47 1 -13
BITMAP
00007C
0001FE
0007FE
000E00
001C00
001C00
003800
003800
007800
007000
007000
007000
00F000
00E000
00E000
00E000
01E000
01E000
01C000
01C000
03C000
03C000
038000
038000
078000
078000
070000
070000
070000
0F0C00
0E1800
0E3000
0FE000
0FC000
0F0000
000000
000000
060000
0F0000
0F0000
070000
060000
060000
0C0000
180000
300000
200000
ENDCHAR

STARTCHAR caron
ENCODING 183
SWIDTH 340 0
DWIDTH 17 0
BBX 15 7 10 24
BITMAP
200C
3038
3070
39E0
1BC0
1F80
1F00
ENDCHAR

STARTCHAR commaaccent
ENCODING 184
SWIDTH 333 0
DWIDTH 17 0
BBX 9 10 3 -13
BITMAP
0F00
0F00
0F00
0700
0600
0600
0C00
1800
3000
2000
ENDCHAR

STARTCHAR scaron
ENCODING 185
SWIDTH 320 0
DWIDTH 16 0
BBX 23 32 2 -1
BITMAP
003018
003070
0038E0
001BC0
001F80
001F00
001E00
000000
000000
000000
003F80
00E7C0
01C3C0
0181C0
038000
038000
03C000
03C000
01E000
01F000
00F800
00FC00
007C00
003E00
001E00
001E00
300E00
780E00
781C00
381C00
3C7000
1FE000
ENDCHAR

STARTCHAR emacron
ENCODING 186
SWIDTH 340 0
DWIDTH 17 0
BBX 21 27 3 -1
BITMAP
00FFF0
01FFE0
000000
000000
000000
003E00
007F00
01CF80
038780
070780
060700
0E0700
0E0E00
1C1C00
1C7000
3DC000
3F0000
3C0000
780000
780000
780200
780600
781C00
7C7800
7FE000
3FC000
1F0000
ENDCHAR

STARTCHAR gcommaaccent
ENCODING 187
SWIDTH 400 0
DWIDTH 20 0
BBX 25 45 -1 -13
BITMAP
00000400
00000C00
00001800
00003000
00006000
00006000
0000E000
0000F000
0000F000
00007000
00000000
00000300
00007E00
0003FE00
0007FE00
000C1E00
00181C00
00301C00
00603C00
00E03800
00C03800
01C07800
01C07800
03807000
03807000
0380F000
0381F000
0381E000
0783E000
07ECE000
03F8E000
03B0E000
00C0E000
0380E000
0E00E000
1C01E000
3801E000
3001C000
7001C000
7003C000
70078000
780F0000
381E0000
1FFC0000
07E00000
ENDCHAR

STARTCHAR afii253
ENCODING 188
SWIDTH 278 0
DWIDTH 14 0
BBX 16 28 0 0
BITMAP
0018
0010
0030
0070
00F0
01E0
07FE
1FFE
01C0
03C0
03C0
03C0
0380
3FF8
0780
0700
0F00
0F00
0E00
1E00
1E00
1E00
1C30
3C60
3C40
3D80
3F00
1E00
ENDCHAR

STARTCHAR afii238
ENCODING 189
SWIDTH 685 0
DWIDTH 34 0
BBX 39 35 -3 -1
BITMAP
0003F01E00
001FF07F80
0003E1FFC0
0003E303E0
0003E601F0
0003CC01F0
0003D800F0
0003D000F8
0007F000F8
0007E000F8
0007C000F8
000FC000F8
000F8000F8
000F8000F8
000F0000F8
001F0000F8
001E0001F8
001E0001F8
003E0001F0
003C0001F0
003C0001F0
003C0001E0
007C0003E0
00780E03E0
00781F03C0
00F83F03C0
00F07F0780
00F07E0780
01F07C0F00
01F0700E00
01E0601C00
03E0603800
07F0307000
3FFE1FE000
0000070000
ENDCHAR

STARTCHAR zcaron
ENCODING 190
SWIDTH 440 0
DWIDTH 22 0
BBX 28 32 0 -1
BITMAP
000300C0
00030380
00018700
00019E00
0001FC00
0001F800
0000F000
00000000
00000000
00000000
003F0600
007FFE00
00FFFC00
00C79800
00803000
00C06000
00E0C000
00018000
00030000
00060000
000C0000
00180000
00700000
00E00000
01801C00
03001C00
06000C00
0FF00C00
1FFE1800
3FFFF800
307FF000
000FC000
ENDCHAR

STARTCHAR afii254
ENCODING 191
SWIDTH 482 0
DWIDTH 24 0
BBX 23 33 0 -11
BITMAP
00E078
1FE1FC
03C3FC
03C63C
03CC3C
03883C
039038
07A078
07A078
074078
0F8070
0F80F0
0F00F0
0F00E0
1E01E0
1E01E0
1C01E0
3C01C0
3C03C0
3803C0
780380
780780
000780
000780
000700
000F00
000E00
000E00
001C00
0E1800
1E3000
1C6000
0FC000
ENDCHAR

STARTCHAR Amacron
ENCODING 192
SWIDTH 620 0
DWIDTH 31 0
BBX 39 41 -4 -6
BITMAP
0000003FFC
0000003FF8
0000000000
0000000000
0000000020
0000000040
0000007FC0
000003FFC0
00000E03C0
0000180780
0000300F80
0000601B80
0000601B80
0000E03380
0000E06780
0000E0C780
000060C780
0000018700
0000030700
0000030700
0000060700
00000C0F00
00000C0F00
0000180F00
0000300E00
00003FFE00
00007FFE00
0000C00E00
0000C00E00
0001801E00
0003001E00
0003001E00
0006001E00
000C001E00
001C003E00
0038003FF0
0070000000
00E0000000
3FC0000000
3F80000000
3E00000000
ENDCHAR

STARTCHAR Aacute
ENCODING 193
SWIDTH 620 0
DWIDTH 31 0
BBX 40 46 -4 -6
BITMAP
000000003C
0000000078
00000000F0
00000000E0
00000001C0
0000000300
0000000600
0000000000
0000000000
0000000000
0000000000
00000003C0
000001FFC0
000007C3C0
00001C07C0
0000300F80
0000600F80
0000601B80
0000E03380
0000E06380
0000E06780
000060C780
0000018700
0000038700
0000030700
0000060700
00000E0F00
00000C0F00
0000180F00
0000380E00
00003FFE00
00007FFE00
0000C00E00
0000C00E00
0001801E00
0003001E00
0003001E00
0006001E00
000C001E00
001C003E00
0038003FF0
0070000000
00E0000000
3FC0000000
3F80000000
3E00000000
ENDCHAR

STARTCHAR Acircumflex
ENCODING 194
SWIDTH 620 0
DWIDTH 31 0
BBX 39 46 -4 -6
BITMAP
00000000E0
00000001F0
00000003F0
0000000770
0000000E30
0000001C18
0000003018
0000000000
0000000000
0000000000
0000000000
00000003C0
000001FFC0
000007C3C0
00001C07C0
0000300F80
0000600F80
0000601B80
0000E03380
0000E06380
0000E06780
000060C780
0000018700
0000038700
0000030700
0000060700
00000E0F00
00000C0F00
0000180F00
0000380E00
00003FFE00
00007FFE00
0000C00E00
0000C00E00
0001801E00
0003001E00
0003001E00
0006001E00
000C001E00
001C003E00
0038003FF0
0070000000
00E0000000
3FC0000000
3F80000000
3E00000000
ENDCHAR

STARTCHAR Atilde
ENCODING 195
SWIDTH 620 0
DWIDTH 31 0
BBX 41 44 -4 -6
BITMAP
0000000F0200
0000001FE200
0000003FFE00
00000031FC00
000000207000
000000000000
000000000000
000000000000
000000000000
00000003C000
000001FFC000
000007C3C000
00001C07C000
0000300F8000
0000600F8000
0000601B8000
0000E0338000
0000E0638000
0000E0678000
000060C78000
000001870000
000003870000
000003070000
000006070000
00000E0F0000
00000C0F0000
0000180F0000
0000380E0000
00003FFE0000
00007FFE0000
0000C00E0000
0000C00E0000
0001801E0000
0003001E0000
0003001E0000
0006001E0000
000C001E0000
001C003E0000
0038003FF000
007000000000
00E000000000
3FC000000000
3F8000000000
3E0000000000
ENDCHAR

STARTCHAR Adieresis
ENCODING 196
SWIDTH 620 0
DWIDTH 31 0
BBX 39 43 -4 -6
BITMAP
0000000C10
0000001C3C
0000003E7C
0000001C38
0000000810
0000000000
0000000000
0000000040
00000003C0
000001FFC0
00000FC380
00001C0780
0000300F80
0000601B80
0000601B80
0000E03780
0000E06780
0000E0C700
000060C700
0000018700
0000030700
0000030F00
0000060F00
00000C0F00
00000C0E00
0000180E00
0000300E00
00003FFE00
00007FFE00
0000C01E00
0000C01E00
0001801E00
0003001E00
0003001C00
0006001C00
000C003C00
001C003C00
0038003FE0
0070000000
00E0000000
3FC0000000
3F80000000
3E00000000
ENDCHAR

STARTCHAR Aring
ENCODING 197
SWIDTH 620 0
DWIDTH 31 0
BBX 38 47 -4 -6
BITMAP
00000001C0
00000007F0
0000000630
0000000C18
0000000C18
0000000C18
0000000630
00000007F0
00000001C0
0000000000
0000000000
0000000040
0000001FC0
000003FFC0
00000F03C0
00001807C0
0000300F80
0000601B80
0000601B80
0000E03380
0000E06780
0000E0E780
000060C780
0000018700
0000038700
0000030700
0000060700
00000C0F00
00000C0F00
0000180F00
0000300E00
00003FFE00
00007FFE00
0000C00E00
0000C00E00
0001801E00
0003001E00
0003001E00
0006001E00
000C001E00
001C003E00
0038003FF0
0070000000
00E0000000
3FC0000000
3F80000000
3E00000000
ENDCHAR

STARTCHAR AE
ENCODING 198
SWIDTH 740 0
DWIDTH 37 0
BBX 44 34 -3 -4
BITMAP
000001E000C0
000007FFFFC0
0000007E01C0
000000DE0080
0000019E0080
0000019C0080
0000031C0080
0000023C0000
0000063C0000
00000C3C0000
000008380000
000018780800
000010781800
000030781000
0000607FF000
000060FFF000
0000C0F03000
0000C0F03000
000180E02000
0003FFE00000
0003FFE00000
000601E00000
000601C00000
000C03C00080
000803C001C0
001803C001C0
0030038001C0
0020078000C0
006007FFC180
00C03FFFFF80
00803007FE00
338000000000
7F0000000000
3C0000000000
ENDCHAR

STARTCHAR Iogonek
ENCODING 199
SWIDTH 380 0
DWIDTH 19 0
BBX 23 38 2 -9
BITMAP
001FF8
007FC0
000780
000F00
000F00
000E00
000E00
001E00
001E00
001C00
001C00
003C00
003C00
003800
003800
007800
007800
007000
007000
00F000
00F000
00E000
01E000
01E000
01E000
01C000
03C000
0FC000
7FFC00
030000
060000
060000
060000
0E0000
0E0000
0F0000
07E000
03E000
ENDCHAR

STARTCHAR Ccaron
ENCODING 200
SWIDTH 520 0
DWIDTH 26 0
BBX 31 45 4 -4
BITMAP
00002018
00003070
000030E0
00003BC0
00001F80
00001F00
00001E00
00000000
00000000
00000000
00000000
0001FF00
000787C0
001E01E0
003C00E0
007000C0
00E000C0
01E000C0
03C000C0
038000C0
078000C0
0F000000
0F000000
1E000000
1E000000
1E000000
3C000000
3C000000
3C000000
3C000000
7C000000
7C000000
7C000000
7C000000
7C000000
3C000000
3C000000
3E000400
3E000C00
1E001C00
1F001800
0F807000
07E1E000
01FF8000
007E0000
ENDCHAR

STARTCHAR Eacute
ENCODING 201
SWIDTH 620 0
DWIDTH 31 0
BBX 33 42 1 -1
BITMAP
0000003E00
0000007800
000000F000
000000E000
000001C000
0000038000
0000030000
0000040000
0000000000
0000000000
0000000000
0000000000
0003FFFF00
003FFFFF00
00F1E00600
0181E00200
0301C00200
0603C00600
0C03C00000
0803C00000
1803800000
1807800000
3007800000
3007804000
3007004000
300FFFC000
380FFFC000
380F00C000
3C0E008000
1C1E000000
081E000000
001E000000
003C000000
003C000000
003C000000
0038000E00
0078000E00
0070000E00
00F0000E00
01FFFC0C00
0FFFFFF800
08001FE000
ENDCHAR

STARTCHAR Eogonek
ENCODING 202
SWIDTH 620 0
DWIDTH 31 0
BBX 33 38 1 -9
BITMAP
0003FFFF00
003FFFFF00
00E1E00600
0181E00200
0301C00200
0603C00600
0C03C00000
0803C00000
1803800000
1807800000
3007800000
3007804000
300700C000
300FFFC000
380FFFC000
380F008000
3C0E008000
1C1E000000
081E000000
001C000000
003C000000
003C000000
0038000000
0038000E00
0078000E00
0070000E00
00F0000E00
01FFF80C00
0FFFFFF800
08001FF000
0000003000
0000006000
0000006000
000000E000
000000E000
000000F000
0000007E00
0000003E00
ENDCHAR

STARTCHAR Edieresis
ENCODING 203
SWIDTH 620 0
DWIDTH 31 0
BBX 33 39 1 -1
BITMAP
00000C1800
00001E3C00
00003E3C00
00001E3C00
00000C1800
0000000000
0000000000
0000000000
0000000000
0007FFFF00
003FFFFE00
00E1E00600
0181C00200
0303C00200
0603C00600
0C03C00000
0803800000
1807800000
1807800000
3007800000
3007004000
300F004000
300FFFC000
380FFFC000
380E008000
3C1E008000
1C1E000000
081E000000
001C000000
003C000000
003C000000
0038000000
0078000E00
0078000E00
0070000E00
00F0000C00
01FFF80C00
0FFFFFF800
08001FE000
ENDCHAR

STARTCHAR Edotaccent
ENCODING 204
SWIDTH 620 0
DWIDTH 31 0
BBX 33 40 1 -1
BITMAP
000001C000
000003E000
000003E000
000003E000
000001C000
0000000000
0000000000
0000000000
0000000000
0000000000
0003FFFF00
003FFFFF00
00F1E00600
0181E00200
0301E00200
0601C00600
0C03C00000
0803C00000
1803C00000
1803800000
3007800000
3007806000
3007804000
3007FFC000
380FFFC000
380F00C000
3C0F00C000
1C1E000000
081E000000
001E000000
001C000000
003C000000
003C000000
0038000E00
0078000E00
0070000E00
00F0000E00
01FFFC0C00
0FFFFFF800
08001FE000
ENDCHAR

STARTCHAR Iacute
ENCODING 205
SWIDTH 380 0
DWIDTH 19 0
BBX 27 40 2 0
BITMAP
00000F00
00001E00
00003C00
00003800
00006000
0000C000
00008000
00000000
00000000
00000000
00000000
0003FC00
007FF000
00078000
00070000
000F0000
000F0000
000F0000
000E0000
001E0000
001E0000
001C0000
001C0000
003C0000
003C0000
00380000
00380000
00780000
00780000
00700000
00700000
00F00000
00F00000
00E00000
00E00000
01E00000
01E00000
03C00000
07C00000
3FFC0000
ENDCHAR

STARTCHAR Icircumflex
ENCODING 206
SWIDTH 380 0
DWIDTH 19 0
BBX 24 40 2 0
BITMAP
0000F8
0001F8
0003D8
00079C
000E0C
000C0C
001004
000000
000000
000000
000000
0003FC
007FF0
000780
000700
000F00
000F00
000F00
000E00
001E00
001E00
001C00
001C00
003C00
003C00
003800
003800
007800
007800
007000
007000
00F000
00F000
00E000
00E000
01E000
01E000
03C000
07C000
3FFC00
ENDCHAR

STARTCHAR Imacron
ENCODING 207
SWIDTH 380 0
DWIDTH 19 0
BBX 26 36 2 -1
BITMAP
0007FF00
000FFF00
00000000
00000000
00000000
00000000
00001C00
007FF800
00078000
00078000
000F0000
000F0000
000F0000
000E0000
001E0000
001E0000
001C0000
001C0000
003C0000
003C0000
00380000
00380000
00780000
00780000
00700000
00700000
00F00000
00F00000
00E00000
00E00000
01E00000
01E00000
01E00000
07C00000
3FFC0000
40000000
ENDCHAR

STARTCHAR Eth
ENCODING 208
SWIDTH 700 0
DWIDTH 35 0
BBX 37 30 2 0
BITMAP
00007F8000
0007FFF000
001E00FC00
0070003E00
00C0101F00
0183F00F80
0301F007C0
0601E003E0
0C01E003E0
1801E001E0
1801C001F0
3001C001F0
3003C001F0
2003C001F0
6003C001F0
60FFFFC1F0
60FFFFC1E0
60078001E0
60078001E0
300F0003E0
380F0003C0
3E0F0003C0
1E0E000780
0C1E000F00
001E001E00
001C003C00
003C007800
003801F000
00FC0FC000
07FFFE0000
ENDCHAR

STARTCHAR Ncommaaccent
ENCODING 209
SWIDTH 700 0
DWIDTH 35 0
BBX 45 43 1 -13
BITMAP
0000000003C0
000038000FE0
000FF8001FF0
003E78003860
00E07C003000
01C07C006000
01007C006000
03005C006000
0200DE00C000
0600DE00C000
0600CE008000
0600CF018000
07008F018000
070187018000
070187810000
030187830000
000103830000
000303C20000
000303C20000
000301C60000
000201E60000
000601E40000
000600F40000
000600FC0000
000C00FC0000
000C007C0000
000800780000
001800380000
001800380000
703000380000
786000100000
3FC000100000
1F0000000000
000060000000
0000F0000000
0000F0000000
000070000000
000060000000
000060000000
0000C0000000
000080000000
000300000000
000200000000
ENDCHAR

STARTCHAR Omacron
ENCODING 210
SWIDTH 600 0
DWIDTH 30 0
BBX 30 37 4 -1
BITMAP
0001FFC0
0003FFC0
00000000
00000000
00000000
00000000
0003F800
001FFF00
00381F80
00E007C0
01C003E0
038003E0
038001F0
070001F0
0E0000F0
0E0000F8
1E0000F8
1C0000F8
3C0000F8
3C0000F8
3C0000F8
3C0000F0
3C0000F0
7C0000F0
7C0000F0
7C0000E0
7C0001E0
7C0001C0
3C0003C0
3E000380
3E000700
1F000700
1F800E00
0FC01C00
07E07000
01FFE000
003F0000
ENDCHAR

STARTCHAR Kcommaaccent
ENCODING 211
SWIDTH 660 0
DWIDTH 33 0
BBX 39 41 3 -12
BITMAP
003FC07FE0
01F3C00F80
0703C00E00
0C03801C00
1807803800
1807806000
300700C000
3007018000
380F070000
380F0C0000
380E380000
001EE00000
001FE00000
001FE00000
001CF00000
003CF00000
003C780000
003C780000
00383C0000
00783C0000
00781C0000
00781E0000
00F01E0000
00F00E0000
00F00F0000
01F0070000
01E0070000
03F0078000
1FFE038000
000003C000
000001C000
000301E018
000780E018
0007807038
0003803C70
0003000FE0
0003000000
0006000000
0006000000
000C000000
0010000000
ENDCHAR

STARTCHAR Ocircumflex
ENCODING 212
SWIDTH 600 0
DWIDTH 30 0
BBX 30 42 4 -1
BITMAP
00001E00
00003F00
00007F00
0000F300
0001C300
00038180
00020180
00000000
00000000
00000000
00000000
0003F800
000FFF00
00381F80
00E007C0
01C003E0
038003E0
038001F0
070001F0
0E0000F0
0E0000F8
1E0000F8
1C0000F8
3C0000F8
3C0000F8
3C0000F8
3C0000F0
3C0000F0
7C0000F0
7C0000F0
7C0000E0
7C0001E0
7C0001C0
3C0003C0
3E000380
3E000700
1F000700
1F800E00
0FC01C00
07E07000
01FFE000
003F0000
ENDCHAR

STARTCHAR Otilde
ENCODING 213
SWIDTH 600 0
DWIDTH 30 0
BBX 30 40 4 -1
BITMAP
0000F020
0001FC60
0003FFC0
00021FC0
00060700
00000000
00000000
00000000
00000000
0003F800
000FFF00
00381F80
00E007C0
01C003E0
038003E0
038001F0
070001F0
0E0000F0
0E0000F8
1E0000F8
1C0000F8
3C0000F8
3C0000F8
3C0000F8
3C0000F0
3C0000F0
7C0000F0
7C0000F0
7C0000E0
7C0001E0
7C0001C0
3C0003C0
3E000380
3E000700
1F000700
1F800E00
0FC01C00
07E07000
01FFE000
003F0000
ENDCHAR

STARTCHAR Odieresis
ENCODING 214
SWIDTH 600 0
DWIDTH 30 0
BBX 30 39 4 -1
BITMAP
0000C180
0001E3C0
0003E7C0
0001C380
00008100
00000000
00000000
00000000
0003F800
001FFF00
00381F80
00E007C0
01C003E0
038003E0
030001F0
070001F0
0E0000F0
0E0000F8
1E0000F8
1C0000F8
3C0000F8
3C0000F8
3C0000F8
3C0000F0
3C0000F0
7C0000F0
7C0000F0
7C0000E0
7C0001E0
7C0001C0
3C0003C0
3E000380
3E000700
1F000700
1F000E00
0FC01C00
07E07000
01FFE000
007F0000
ENDCHAR

STARTCHAR multiply
ENCODING 215
SWIDTH 520 0
DWIDTH 26 0
BBX 21 18 7 5
BITMAP
300060
7800F0
3C01E0
1E03C0
0F0780
078F00
03DE00
01FC00
00F800
00F800
01FC00
03DE00
078F00
0F0780
1E03C0
3C01E0
3800E0
100040
ENDCHAR

STARTCHAR Oslash
ENCODING 216
SWIDTH 660 0
DWIDTH 33 0
BBX 30 35 5 -3
BITMAP
00000020
00000020
0003F860
001FFFC0
00381F80
00E007C0
01C003E0
038007E0
03000DF0
070009F0
0E0018F0
0E0030F8
1E0060F8
1C0040F8
3C00C0F8
3C0180F8
3C0300F8
3C0200F0
3C0600F0
7C0C00F0
7C1800F0
7C1000E0
7C3001E0
7C6001C0
3CC003C0
3E800380
3F800700
1F000700
1F000E00
0FC01C00
0FE07000
19FFE000
307F0000
20000000
20000000
ENDCHAR

STARTCHAR Uogonek
ENCODING 217
SWIDTH 740 0
DWIDTH 37 0
BBX 38 44 4 -10
BITMAP
00000000C0
00000000E0
00000000F0
00000000F0
0000000070
0000400070
00FFC00070
03E3800030
0707800030
0C07000030
1807000030
100E000030
300E000030
301E000060
381C000060
383C000060
383C000060
00380000C0
00780000C0
00780000C0
0070000180
0070000180
00F0000300
00F0000300
00F0000600
00F0000E00
00F0000C00
00F0001800
00F8003800
00F8007000
007C01E000
007F07C000
003FFF0000
001FFC0000
0007F00000
0001800000
0003000000
0003000000
0003000000
0007000000
0007000000
0007800000
0003F00000
0001F00000
ENDCHAR

STARTCHAR Uacute
ENCODING 218
SWIDTH 740 0
DWIDTH 37 0
BBX 37 41 4 -1
BITMAP
0000001E00
0000003C00
0000003800
0000007000
000000E000
000000C000
0000018080
00000001C0
00000001E0
00000000E0
00000000E0
00004000E0
00FFC00060
03E3800060
0E03800060
1C07000060
1807000060
300F000060
300E000060
701E000040
781C0000C0
783C0000C0
383C0000C0
0038000080
0078000180
0078000180
0070000100
00F0000300
00F0000200
00F0000600
00F0000C00
00F0000C00
00F0001800
00F8003800
00F8007000
00F800E000
007C01C000
007F0F8000
003FFF0000
001FFC0000
0007F00000
ENDCHAR

STARTCHAR Ucircumflex
ENCODING 219
SWIDTH 740 0
DWIDTH 37 0
BBX 37 41 4 -1
BITMAP
0000007800
000000F800
000001F800
000003DC00
0000070C00
00000E0C00
00000C0480
00000001C0
00000001E0
00000000E0
00000000E0
00004000E0
00FFC00060
03E3800060
0E03800060
1C07000060
1807000060
300F000060
300E000060
701E000040
781C0000C0
783C0000C0
383C0000C0
0038000080
0078000180
0078000180
0070000100
00F0000300
00F0000200
00F0000600
00F0000C00
00F0000C00
00F0001800
00F8003800
00F8007000
00F800E000
007C01C000
007F0F8000
003FFF0000
001FFC0000
0007F00000
ENDCHAR

STARTCHAR Udieresis
ENCODING 220
SWIDTH 740 0
DWIDTH 37 0
BBX 37 38 4 -1
BITMAP
0000030600
0000078E00
00000F9F00
0000070E00
00000205C0
00000001E0
00000001E0
00000000E0
00000000E0
007FC00060
01FF800060
0703800060
0C07000060
1807000060
300F000060
300E000060
701E000060
701C0000C0
781C0000C0
383C0000C0
0038000080
0078000180
0078000180
0078000100
0070000300
00F0000300
00F0000600
00F0000600
00F0000C00
00F0001800
00F0003800
00F8007000
00F800E000
007C01C000
007F078000
003FFF0000
001FFC0000
0007F00000
ENDCHAR

STARTCHAR Utilde
ENCODING 221
SWIDTH 740 0
DWIDTH 37 0
BBX 37 39 4 -1
BITMAP
00000F0200
00001FC600
00003FFC00
000031FC00
0000207080
00000001C0
00000001E0
00000000E0
00000000E0
00004000E0
00FFC00060
03E3800060
0E03800060
1C07000060
1007000060
300F000060
300E000060
701E000040
781C0000C0
781C0000C0
383C0000C0
0038000080
0078000180
0078000180
0070000300
0070000300
00F0000300
00F0000600
00F0000E00
00F0000C00
00F0001800
00F0003800
00F8007000
00F800E000
007C01C000
007F0F8000
003FFF0000
001FFC0000
0007F00000
ENDCHAR

STARTCHAR Umacron
ENCODING 222
SWIDTH 740 0
DWIDTH 37 0
BBX 37 36 4 -1
BITMAP
00001FFC00
00003FF9C0
00000001E0
00000001E0
00000000E0
00000000E0
000FC000E0
01FFC00060
0383800060
0E07800060
1807000060
300F000060
300E000060
300E000060
701E000040
781C0000C0
383C0000C0
383C0000C0
0038000080
0078000180
0078000180
0070000300
00F0000300
00F0000600
00F0000600
00F0000C00
00F0000C00
00F0001800
00F8003800
00F8007000
00F800E000
007C01C000
007F0F8000
003FFF0000
001FFC0000
0007F00000
ENDCHAR

STARTCHAR germandbls
ENCODING 223
SWIDTH 420 0
DWIDTH 21 0
BBX 37 47 -10 -13
BITMAP
0000001FC0
00000079E0
000000E060
000001C070
000001C070
0000038070
0000038070
0000078060
00000700E0
00000700C0
00000F0180
00000F0380
00000E0300
00000E0600
00001E0E00
00001E0C00
00001C1800
00001C3800
00003C3C00
00003C3C00
0000383E00
0000381E00
0000781F00
0000780F00
0000700F80
0000700780
0000F00780
0000F00380
0000E00380
0000E30380
0001E78300
0001E78700
0001C38E00
0001C3FC00
0003C0F000
0003800000
0003800000
0003800000
0007000000
0007000000
0006000000
000C000000
000C000000
1838000000
7FF0000000
7FC0000000
3F00000000
ENDCHAR

STARTCHAR amacron
ENCODING 224
SWIDTH 420 0
DWIDTH 21 0
BBX 24 26 3 -1
BITMAP
001FFC
003FF8
000000
000000
000030
0007F0
001FE0
007FE0
00C1E0
0181C0
0301C0
0603C0
0E03C0
0C0380
1C0380
1C0780
380780
380700
380F00
780F00
781F08
783F18
7CEF60
7FCFC0
3F0F80
1E0E00
ENDCHAR

STARTCHAR aacute
ENCODING 225
SWIDTH 420 0
DWIDTH 21 0
BBX 24 31 3 -1
BITMAP
00003C
000078
0000E0
0001C0
000180
000300
000600
000000
000000
000030
0007F0
001FE0
007FE0
00C1E0
0181C0
0301C0
0603C0
0E03C0
0C0380
1C0380
1C0780
380780
380700
380F00
780F00
781F08
783F18
7CEF60
7FCFC0
3F0F80
1E0E00
ENDCHAR

STARTCHAR acircumflex
ENCODING 226
SWIDTH 420 0
DWIDTH 21 0
BBX 25 31 3 -1
BITMAP
00007C00
0000FC00
0001EC00
0003CE00
00030600
00060600
00080200
00000000
00000000
00003000
0007F000
001FE000
007FE000
00C1E000
0181C000
0301C000
0603C000
0E03C000
0C038000
1C038000
1C078000
38078000
38070000
380F0000
780F0000
781F0800
783F1800
7CEF6000
7FCFC000
3F0F8000
1E0E0000
ENDCHAR

STARTCHAR atilde
ENCODING 227
SWIDTH 420 0
DWIDTH 21 0
BBX 27 31 3 -1
BITMAP
0001C0C0
0007F880
0007FF80
000C7F00
00081E00
00000000
00000000
00000000
00000000
00003000
0007F000
001FE000
007FE000
00C1E000
0181C000
0301C000
0603C000
0E03C000
0C038000
1C038000
1C078000
38078000
38070000
380F0000
780F0000
781F0800
783F1800
7CEF6000
7FCFC000
3F0F8000
1E0E0000
ENDCHAR

STARTCHAR adieresis
ENCODING 228
SWIDTH 420 0
DWIDTH 21 0
BBX 26 29 2 -1
BITMAP
00018200
00038780
0007CF80
00078700
00038700
00000000
00000000
00001000
0007F000
001FF000
007FE000
00E0E000
0181E000
0301C000
0601C000
0E01C000
0C03C000
1C038000
1C038000
38078000
38078000
38078000
780F0000
781F0800
78371800
7CEF3000
7FCFE000
3F8F8000
1E0F0000
ENDCHAR

STARTCHAR aring
ENCODING 229
SWIDTH 420 0
DWIDTH 21 0
BBX 23 32 2 -1
BITMAP
0001C0
0007F0
000630
000C18
000C18
000C18
000630
0007F0
0001C0
000000
000010
0007F0
001FF0
007FE0
00C0E0
0181E0
0301C0
0601C0
0E03C0
0C03C0
1C0380
1C0380
380780
380780
380F00
780F00
781F08
783718
7CEF30
7FCFE0
3F8F80
1E0E00
ENDCHAR

STARTCHAR ae
ENCODING 230
SWIDTH 540 0
DWIDTH 27 0
BBX 28 22 3 -1
BITMAP
000027C0
000FFFC0
003FF3E0
007FE1E0
01C1C1E0
0381C1C0
0303C1C0
06038380
0E038700
0C078E00
1C07B800
1C07F000
3807C000
380F0000
380F0000
781F0000
781F0180
782F0380
7CCF8E00
7F8FFC00
3F07F800
1C03E000
ENDCHAR

STARTCHAR iogonek
ENCODING 231
SWIDTH 240 0
DWIDTH 12 0
BBX 16 41 2 -10
BITMAP
0018
003C
003C
003C
0018
0000
0000
0000
0000
0000
0000
01E0
07E0
0FE0
19E0
31C0
21C0
03C0
0380
0380
0780
0780
0700
0F00
0F00
0E00
0E10
1E30
1E60
1FC0
1F00
0E00
0C00
1800
1800
1800
3800
3800
3C00
1F80
0F80
ENDCHAR

STARTCHAR ccaron
ENCODING 232
SWIDTH 340 0
DWIDTH 17 0
BBX 23 32 3 -1
BITMAP
006010
003070
0030E0
003BC0
003F80
001F00
001E00
000000
000000
000000
003F00
00FF80
018F80
030300
060000
060000
0C0000
1C0000
1C0000
180000
380000
380000
380000
780000
780000
780000
780600
7C0C00
7C3800
3FF000
3FC000
0E0000
ENDCHAR

STARTCHAR eacute
ENCODING 233
SWIDTH 340 0
DWIDTH 17 0
BBX 21 32 3 -1
BITMAP
0001E0
0003C0
000780
000700
000C00
001800
003000
000000
000000
000000
001E00
007F00
01CF80
038780
070780
060700
0E0700
0E0E00
1C1C00
1C7000
3DC000
3F0000
3C0000
780000
780000
780200
780600
781C00
7C7800
7FE000
3FC000
1F0000
ENDCHAR

STARTCHAR eogonek
ENCODING 234
SWIDTH 340 0
DWIDTH 17 0
BBX 18 31 3 -10
BITMAP
001E00
007F00
01CF80
038780
070780
060700
0E0700
0E0E00
1C1C00
1C7000
3DC000
3F0000
3C0000
780000
780000
780200
780600
781C00
7C7800
7FE000
3FC000
1F0000
060000
0C0000
0C0000
0C0000
1C0000
1C0000
1E0000
0FE000
07C000
ENDCHAR

STARTCHAR edieresis
ENCODING 235
SWIDTH 340 0
DWIDTH 17 0
BBX 22 29 3 -1
BITMAP
001820
003C78
007CF8
003870
001020
000000
000000
001E00
007F00
01CF80
038780
070780
060700
0E0700
0E0E00
1C1C00
1C7000
3DC000
3F0000
3C0000
780000
780000
780200
780600
781C00
7C7800
7FE000
3FC000
1F0000
ENDCHAR

STARTCHAR edotaccent
ENCODING 236
SWIDTH 340 0
DWIDTH 17 0
BBX 18 31 3 -1
BITMAP
000E00
001F00
001F00
001F00
000E00
000000
000000
000000
000000
003E00
007F00
01CF80
038780
070780
060700
0E0700
0E0E00
1C1C00
1C7000
3DC000
3F0000
3C0000
780000
780000
780200
780600
781C00
7C7800
7FE000
3FC000
1F0000
ENDCHAR

STARTCHAR iacute
ENCODING 237
SWIDTH 240 0
DWIDTH 12 0
BBX 18 32 2 -1
BITMAP
001F00
003C00
003800
007000
00E000
00C000
018000
000000
000000
000000
00E000
03E000
0FE000
19E000
31C000
21C000
03C000
03C000
038000
078000
078000
070000
070000
0F0000
0F0000
0E0000
0E1000
1E3000
1E6000
1FC000
1F0000
0E0000
ENDCHAR

STARTCHAR icircumflex
ENCODING 238
SWIDTH 240 0
DWIDTH 12 0
BBX 17 32 2 -1
BITMAP
003C00
007C00
00FE00
01EE00
038600
070600
0C0300
000000
000000
000000
00E000
03E000
0FE000
19E000
31C000
21C000
03C000
03C000
038000
078000
078000
070000
070000
0F0000
0F0000
0E0000
0E1000
1E3000
1E6000
1FC000
1F0000
0E0000
ENDCHAR

STARTCHAR imacron
ENCODING 239
SWIDTH 240 0
DWIDTH 12 0
BBX 18 26 2 -1
BITMAP
07FF00
0FFE00
000000
000000
000000
01E000
03E000
0FE000
19E000
31C000
21C000
03C000
038000
038000
078000
070000
070000
0F0000
0F0000
0E0000
0E1000
1E3000
1E6000
1FC000
1F0000
0E0000
ENDCHAR

STARTCHAR dcroat
ENCODING 240
SWIDTH 440 0
DWIDTH 22 0
BBX 32 35 3 0
BITMAP
0000003C
000000FE
000003FE
0000063C
00000C00
00001C00
00003800
00003800
001FFFE0
001FFFE0
00007000
00007000
0000F000
0000E000
001FE000
003FE000
00E1E000
0181C000
0301C000
0301C000
0603C000
0E03C000
0C038000
1C038000
1C078000
38078000
38070000
380F0000
780F0000
781F0800
783F1800
7CEF6000
7FCFC000
3F0F8000
1E0E0000
ENDCHAR

STARTCHAR ncommaaccent
ENCODING 241
SWIDTH 460 0
DWIDTH 23 0
BBX 24 34 3 -13
BITMAP
00C030
03C0F8
07C3F8
1BC7F8
33CC78
63D078
03A070
03C0F0
03C0F0
0780E0
0781E0
0701E0
0701C0
0F03C0
0F03C0
0E0380
0E0384
1E078C
1E0798
1C07E0
1C03C0
000100
000000
000000
01E000
01E000
01E000
00E000
00C000
00C000
018000
030000
060000
040000
ENDCHAR

STARTCHAR omacron
ENCODING 242
SWIDTH 400 0
DWIDTH 20 0
BBX 23 27 2 -1
BITMAP
003FFC
003FF8
000000
000000
000000
001F00
007FC0
00C3E0
0181E0
0381F0
0700F0
0E00F0
0E00F0
1E00F0
1E00F0
1C00F0
3C00E0
3C00E0
3C01E0
3C01C0
3C01C0
3C0380
3E0300
1E0600
1F0C00
0FF800
03C000
ENDCHAR

STARTCHAR kcommaaccent
ENCODING 243
SWIDTH 440 0
DWIDTH 22 0
BBX 32 46 3 -12
BITMAP
0001F800
0007F800
000FF800
00180000
00300000
00700000
00700000
00600000
00E00000
00E00000
00E00000
01C00000
01C00000
01C00000
03C3E000
03CFF000
03987000
03B07000
07E07000
07C0E000
0780C000
07038000
07FE0000
0F800000
0F600000
0E300000
0E380000
1E1C0000
1E1E0000
1C0E0000
1C0F0000
3C070000
3C078000
3C038000
0003C000
0003C000
0001C000
01E0E01C
01E0F01C
01E0701C
00E0381C
00C01E38
008007F0
01800000
03000000
06000000
ENDCHAR

STARTCHAR ocircumflex
ENCODING 244
SWIDTH 400 0
DWIDTH 20 0
BBX 23 32 2 -1
BITMAP
0001F0
0003F0
0007F0
000F30
001C38
001818
002008
000000
000000
000000
001F00
007FC0
00C3E0
0181E0
0381F0
0700F0
0E00F0
0E00F0
1E00F0
1E00F0
1C00F0
3C00E0
3C00E0
3C01E0
3C01C0
3C01C0
3C0380
3E0300
1E0600
1F0C00
0FF800
03C000
ENDCHAR

STARTCHAR otilde
ENCODING 245
SWIDTH 400 0
DWIDTH 20 0
BBX 24 31 2 -1
BITMAP
001E04
003FC4
007FFC
0067F8
00C1F0
000000
000000
000000
000000
001F00
007FC0
00C3E0
0181E0
0381F0
0700F0
0E00F0
0E00F0
1E00F0
1E00F0
1C00F0
3C00E0
3C00E0
3C01E0
3C01C0
3C01C0
3C0380
3E0300
1E0600
1F0C00
0FF800
03C000
ENDCHAR

STARTCHAR odieresis
ENCODING 246
SWIDTH 400 0
DWIDTH 20 0
BBX 22 29 3 -1
BITMAP
001830
003C78
007CF8
003870
001020
000000
000000
001E00
007F80
00C7C0
0183C0
0303E0
0701E0
0E01E0
0E01E0
1E01E0
1C01E0
1C01E0
3C01C0
3C01C0
3C01C0
3C0380
3C0380
3C0300
3E0600
1E0E00
1F1800
0FF000
03C000
ENDCHAR

STARTCHAR divide
ENCODING 247
SWIDTH 520 0
DWIDTH 26 0
BBX 25 18 5 5
BITMAP
001C0000
003C0000
003C0000
00180000
00000000
00000000
00000000
3FFFFE00
3FFFFE00
3FFFFE00
00000000
00000000
00000000
00000000
003C0000
003C0000
003C0000
003C0000
ENDCHAR

STARTCHAR oslash
ENCODING 248
SWIDTH 440 0
DWIDTH 22 0
BBX 22 24 3 -2
BITMAP
000010
000F10
007FE0
00C3E0
0181E0
0301F0
0701F0
0E03F0
0E06F0
1E0CF0
1C08F0
1C10F0
1C30F0
3C60E0
3CC1E0
3C81C0
3D01C0
3F0380
3E0300
1E0600
1F0C00
1FF800
33C000
200000
ENDCHAR

STARTCHAR uogonek
ENCODING 249
SWIDTH 460 0
DWIDTH 23 0
BBX 24 30 3 -9
BITMAP
00C000
03E038
0FE038
19E078
31E078
01C070
03C070
03C0F0
0380E0
0780E0
0780E0
0781E0
0F01C0
0F03C0
0F07C0
0E0FC0
1E1B84
1E7388
1FE3F0
1FC3E0
1F03C0
000180
000300
000300
000300
000700
000700
000780
0003F0
0001F0
ENDCHAR

STARTCHAR uacute
ENCODING 250
SWIDTH 460 0
DWIDTH 23 0
BBX 26 32 2 -1
BITMAP
00001F00
00001E00
00003800
00007000
0000E000
0000C000
00018000
00000000
00000000
00000000
00400000
03E01C00
07E03C00
0DE03C00
31E03800
21C03800
01C07800
01C07800
03C07000
03807000
0380F000
0380F000
0780E000
0701E000
0703E000
0703C000
0F07C200
0F19C600
0FF1CC00
0FE3F000
0F81E000
06008000
ENDCHAR

STARTCHAR ucircumflex
ENCODING 251
SWIDTH 460 0
DWIDTH 23 0
BBX 25 32 2 -1
BITMAP
00007800
0000F800
0001FC00
0003DC00
00078C00
00060C00
000C0600
00000000
00000000
00000000
00400000
03E01C00
07E03C00
0DE03C00
31E03800
21C03800
01C07800
01C07800
03C07000
03807000
0380F000
0380F000
0780E000
0701E000
0703E000
0703C000
0F07C200
0F19C600
0FF1CC00
0FE3F000
0F81E000
06008000
ENDCHAR

STARTCHAR udieresis
ENCODING 252
SWIDTH 460 0
DWIDTH 23 0
BBX 25 29 2 -1
BITMAP
00030600
00070F00
000F9F00
00070E00
00020400
00000000
00000000
00400000
03E01C00
07E03C00
0DE03C00
31E03800
21E03800
01C07800
01C07000
03C07000
03C07000
0380F000
0380E000
0780E000
0781E000
0703E000
0703C000
0F07C200
0F19C600
0FF1CC00
0FE3F000
0F81E000
06008000
ENDCHAR

STARTCHAR utilde
ENCODING 253
SWIDTH 460 0
DWIDTH 23 0
BBX 24 31 3 -1
BITMAP
000E06
003FC4
003FFC
0063F8
0040F0
000000
000000
000000
000000
00C000
03C038
0FC078
1BC078
31C070
23C070
03C0F0
0380F0
0380E0
0780E0
0701E0
0701C0
0701C0
0F03C0
0E07C0
0E0780
0E0F84
1E3B8C
1FE398
1FC7E0
1F03C0
0C0100
ENDCHAR

STARTCHAR umacron
ENCODING 254
SWIDTH 460 0
DWIDTH 23 0
BBX 25 27 2 -1
BITMAP
000FFE00
000FFE00
00000000
00000000
00000000
00C00000
03E01C00
07E03C00
0DE03C00
31E03800
21C03800
01C07800
01C07800
03C07000
03807000
0380F000
0380F000
0780E000
0701E000
0703E000
0703C000
0F07C200
0F19C600
0FF1CC00
0FE3F000
0F81E000
06008000
ENDCHAR

STARTCHAR dotaccent
ENCODING 255
SWIDTH 220 0
DWIDTH 11 0
BBX 7 5 9 25
BITMAP
38
7C
7C
7C
38
ENDCHAR
ENDFONT
